<svg id="f1067a2b-7edf-4a04-a567-fd56c3a02370" data-name="Layer 1" xmlns="http://www.w3.org/2000/svg" xmlns:xlink="http://www.w3.org/1999/xlink" width="865.76" height="682.89" viewBox="0 0 865.76 682.89"><defs><clipPath id="eab81a5b-0737-4fcc-8ba2-66c089e1a29b"><path id="b9e7b6c2-3d89-43e3-8774-f83ec29c0825" data-name="SVGID" d="M321.56,47.34c-107.27,14-75.44,100.42-56.75,134a139.65,139.65,0,0,0,14.78,21.28c56.55,67.91-31.44,92.6-57.29,98.2-10.45,2.27-20.82,4.87-31,8.05-72.79,22.68-95.43,53.93-95.43,53.93C-5.06,480.2,109.08,562.91,109.08,562.91s90.7,109.67,406.07,105.22c0,0,254.31-6.66,304.28-238.75,0,0,25.54-135.48-44.42-223.21C775,206.17,635.45,6.23,321.56,47.34Z" fill="none"/></clipPath></defs><path d="M321.56,47.34c-107.27,14-75.44,100.42-56.75,134a139.65,139.65,0,0,0,14.78,21.28c56.55,67.91-31.44,92.6-57.29,98.2-10.45,2.27-20.82,4.87-31,8.05-72.79,22.68-95.43,53.93-95.43,53.93C-5.06,480.2,109.08,562.91,109.08,562.91s90.7,109.67,406.07,105.22c0,0,254.31-6.66,304.28-238.75,0,0,25.54-135.48-44.42-223.21C775,206.17,635.45,6.23,321.56,47.34Z" fill="#243e5b"/><path d="M321.56,47.34c-107.27,14-75.44,100.42-56.75,134a139.65,139.65,0,0,0,14.78,21.28c56.55,67.91-31.44,92.6-57.29,98.2-10.45,2.27-20.82,4.87-31,8.05-72.79,22.68-95.43,53.93-95.43,53.93C-5.06,480.2,109.08,562.91,109.08,562.91s90.7,109.67,406.07,105.22c0,0,254.31-6.66,304.28-238.75,0,0,25.54-135.48-44.42-223.21C775,206.17,635.45,6.23,321.56,47.34Z" fill="#fff" opacity="0.7"/><g clip-path="url(#eab81a5b-0737-4fcc-8ba2-66c089e1a29b)"><polygon points="784.37 546.37 82.91 546.37 122.32 649.48 797.24 766.38 784.37 546.37" fill="#243e5b"/><polygon points="784.37 546.37 82.91 546.37 122.32 649.48 797.24 766.38 784.37 546.37" fill="#fff" opacity="0.5"/><path d="M414.81,473.81,409.18,530a5.7,5.7,0,0,1-6.2,5.15h-.05l-89.15-8.92a5.75,5.75,0,0,1-5.15-6.27l5.63-56.21a5.32,5.32,0,0,1,5.83-4.76L410,468a5.3,5.3,0,0,1,4.79,5.77Z" fill="#599b7a"/><path d="M414.81,473.81,409.18,530a5.7,5.7,0,0,1-6.2,5.15h-.05l-89.15-8.92a5.75,5.75,0,0,1-5.15-6.27l5.63-56.21a5.32,5.32,0,0,1,5.83-4.76L410,468a5.3,5.3,0,0,1,4.79,5.77Z" opacity="0.2"/><rect x="356.52" y="435.91" width="12.57" height="101.04" transform="translate(-158.12 797.68) rotate(-84.14)" fill="#fff"/><rect x="357.84" y="456.68" width="7.05" height="87.71" transform="translate(-173.45 808.9) rotate(-84.14)" fill="#fff"/><path d="M395.66,502.58l-.56.25H395a.1.1,0,0,1-.1-.07.12.12,0,0,1,0-.16h0l.77-.37a.12.12,0,0,1,.18.16l-.34,3.49a.14.14,0,0,1-.14.12h0a.14.14,0,0,1-.12-.16Z" fill="#599b7a"/><path d="M396.54,505.87l1.94-1.43a1,1,0,0,0,.4-.69,1.12,1.12,0,0,0-.19-.67,1,1,0,0,0-.7-.4,1,1,0,0,0-.68.19l-.21.14a.13.13,0,1,1-.15-.2h0l.19-.16a1.32,1.32,0,0,1,.88-.23,1.21,1.21,0,0,1,.87.49,1.29,1.29,0,0,1-.26,1.75L397,506l1.81.18a.12.12,0,0,1,.11.14h0a.12.12,0,0,1-.14.11h0l-2.12-.24h-.11a.16.16,0,0,1,0-.21A.13.13,0,0,1,396.54,505.87Z" fill="#599b7a"/><path d="M402.42,503.09l-1.08.91a1.3,1.3,0,0,1-.51,2.53h0a1.3,1.3,0,0,1-.87-.48.11.11,0,0,1,0-.16l0,0a.11.11,0,0,1,.16,0l0,0a1.06,1.06,0,0,0,.69.36,1,1,0,0,0,1.12-.9,1,1,0,0,0-.91-1.12.15.15,0,0,1-.11-.06h0a.15.15,0,0,1,0-.19h0l1.05-.87-1.46-.16c-.06,0-.11-.05-.12-.11a0,0,0,0,1,0,0,.12.12,0,0,1,.12-.13h0l1.77.18a.13.13,0,0,1,.12.14v0h0Z" fill="#599b7a"/><rect x="349.91" y="476.81" width="1.38" height="68.41" transform="translate(-193.54 807.61) rotate(-84.14)" fill="#243e5b"/><rect x="351.11" y="478.13" width="1.38" height="71.37" transform="translate(-195.25 811.31) rotate(-84.14)" fill="#243e5b"/><path d="M369.74,439.71l9.14,55.75A5.7,5.7,0,0,1,374.2,502h0l-88.42,14.52a5.72,5.72,0,0,1-6.56-4.73l-9.15-55.75a5.33,5.33,0,0,1,4.39-6.11l89.18-14.57A5.31,5.31,0,0,1,369.74,439.71Z" fill="#599b7a"/><path d="M363.23,490a5.27,5.27,0,1,1-6.05-4.33h0A5.27,5.27,0,0,1,363.23,490Z" fill="#fff"/><path d="M369.62,488.91a5.26,5.26,0,1,1-6.05-4.33h0A5.26,5.26,0,0,1,369.62,488.91Z" fill="#243e5b"/><path d="M293.5,469.93l-5.77,1a6.56,6.56,0,0,1-7.54-5.41h0a6.54,6.54,0,0,1,5.4-7.52h0l5.78-1a6.58,6.58,0,0,1,7.53,5.41h0a6.54,6.54,0,0,1-5.4,7.52Z" fill="#243e5b"/><path d="M360.09,453l-8.47,1.39a3.6,3.6,0,0,1-4.13-3h0a3.59,3.59,0,0,1,2.95-4.13h0l8.47-1.39a3.57,3.57,0,0,1,4.12,2.95h0a3.59,3.59,0,0,1-3,4.12Z" fill="#fff"/><path d="M282.5,483.86l-.69.56h-.09a.19.19,0,0,1-.18,0,.18.18,0,0,1,0-.27l.95-.81a.19.19,0,0,1,.26,0h0a.29.29,0,0,1,0,.13l.82,5a.18.18,0,0,1-.15.21h0a.18.18,0,0,1-.22-.14v0Z" fill="#fff"/><path d="M285,488.13l2.16-2.7a1.47,1.47,0,0,0,.3-1.12,1.32,1.32,0,0,0-.52-.87,1.38,1.38,0,0,0-1.11-.29,1.47,1.47,0,0,0-.88.51l-.22.29a.2.2,0,0,1-.31-.24l.22-.28a1.81,1.81,0,0,1,3.19.82h0a1.83,1.83,0,0,1-.36,1.41L285.57,488l2.57-.43a.21.21,0,0,1,.22.17h0a.2.2,0,0,1-.16.22l-3,.49h0a.19.19,0,0,1-.15,0,.22.22,0,0,1-.09-.3Z" fill="#fff"/><path d="M292,482.08l-1.17,1.66a2,2,0,0,1,1,.35,1.86,1.86,0,0,1,.75,1.28,1.91,1.91,0,0,1-1.54,2.15,1.85,1.85,0,0,1-1.39-.33.18.18,0,0,1,0-.26h0a.18.18,0,0,1,.27,0,1.46,1.46,0,0,0,1.09.26,1.49,1.49,0,0,0,1-.6,1.52,1.52,0,0,0-1.41-2.38h0a.15.15,0,0,1-.16,0h0a.18.18,0,0,1,0-.27l1.12-1.61-2.08.34a.2.2,0,0,1-.23-.15h0a.19.19,0,0,1,.15-.22h0l2.57-.41a.2.2,0,0,1,.23.16.14.14,0,0,1,0,.09A.16.16,0,0,1,292,482.08Z" fill="#fff"/><path d="M297.24,485.3l-2.94.49h-.11a.19.19,0,0,1-.09-.24v0l2.51-4.43h0a.17.17,0,0,1,.24-.08h0a.18.18,0,0,1,.08.09h0l.61,3.71h.37a.19.19,0,0,1,.22.14v0a.18.18,0,0,1-.15.2h-.38l.16.94a.2.2,0,0,1-.16.21h0a.2.2,0,0,1-.22-.16Zm0-.38-.58-3.23-2.05,3.61Z" fill="#fff"/><path d="M304.14,484.76a.2.2,0,0,1,0-.27.21.21,0,0,1,.29,0,1.46,1.46,0,0,0,1.09.24,1.4,1.4,0,0,0,1-.59,1.45,1.45,0,0,0-1.43-2.3,1.45,1.45,0,0,0-1,.59.2.2,0,0,1-.27,0h-.06a.09.09,0,0,1,0-.07h0l-.1-2.22a.17.17,0,0,1,.06-.16h.12l2.57-.41a.19.19,0,0,1,.23.15h0a.2.2,0,0,1-.17.23l-2.36.38.07,1.65a1.78,1.78,0,0,1,.88-.4,1.85,1.85,0,0,1,1.39.32,1.81,1.81,0,0,1,.74,1.21,1.87,1.87,0,0,1-1.55,2.14,1.9,1.9,0,0,1-1.37-.32Z" fill="#fff"/><path d="M308.7,480.2a2.2,2.2,0,0,1,1.71-1.48.19.19,0,0,1,.22.14h0a.21.21,0,0,1-.16.24,1.84,1.84,0,0,0-1.41,1.28,3.78,3.78,0,0,0-.22,1.15,1.83,1.83,0,1,1-.24,1.28c0-.11-.05-.23-.07-.34A4.49,4.49,0,0,1,308.7,480.2Zm.27,2.58v.1h0a1.45,1.45,0,1,0,0-.18Z" fill="#fff"/><path d="M314.41,483.35l1.22-5.14-2.57.42a.19.19,0,0,1-.22-.15.21.21,0,0,1,.16-.22l2.87-.48H316a.27.27,0,0,1,.12.09h0a.21.21,0,0,1,0,.11l-1.29,5.34a.17.17,0,0,1-.15.14.11.11,0,0,1-.08,0A.21.21,0,0,1,314.41,483.35Z" fill="#fff"/><path d="M318.93,477.31a1.14,1.14,0,0,1,1,1.93,1.75,1.75,0,1,1-2.16,1.89,1.8,1.8,0,0,1,.82-1.73,1.11,1.11,0,0,1,.38-2.09Zm.82,5.05a1.4,1.4,0,0,0-.34-2.78l-.11,0a1.4,1.4,0,0,0,.34,2.78Zm-.51-3.16a.78.78,0,1,0-.89-.65.77.77,0,0,0,.89.65Z" fill="#fff"/><path d="M328.56,475.72a1.82,1.82,0,0,1,2.05,1.29h0a2.34,2.34,0,0,0,.09.46,4.68,4.68,0,0,1-.17,2.26,2.25,2.25,0,0,1-1.7,1.49h0a.17.17,0,0,1-.21-.11v0a.18.18,0,0,1,.12-.23h0a1.92,1.92,0,0,0,1.42-1.29,3.48,3.48,0,0,0,.2-1.15,1.76,1.76,0,0,1-1.29.81,1.81,1.81,0,0,1-.59-3.57Zm1.73,1.56a1.43,1.43,0,1,0-1.2,1.65A1.45,1.45,0,0,0,330.29,477.28Z" fill="#fff"/><path d="M332.19,477.92a3.54,3.54,0,0,1,.21-2,1.55,1.55,0,0,1,2.71-.45,3.52,3.52,0,0,1,.84,1.82,3.46,3.46,0,0,1-.22,2,1.67,1.67,0,0,1-1.22,1,1.71,1.71,0,0,1-1.49-.6A3.43,3.43,0,0,1,332.19,477.92Zm.39,0a2.94,2.94,0,0,0,.73,1.61,1.16,1.16,0,0,0,2.07-.34,3.26,3.26,0,0,0-.55-3.36,1.26,1.26,0,0,0-1.14-.49,1.31,1.31,0,0,0-.93.82,3,3,0,0,0-.18,1.67Z" fill="#fff"/><path d="M338.09,474.73l-.7.57h-.09a.19.19,0,0,1-.18,0,.2.2,0,0,1,0-.27l.95-.81a.19.19,0,0,1,.26,0h0a.15.15,0,0,1,0,.13l.82,5a.17.17,0,0,1-.15.2h0a.2.2,0,0,1-.21-.16h0Z" fill="#fff"/><path d="M340.56,479l2.16-2.7a1.4,1.4,0,0,0,.29-1.12,1.25,1.25,0,0,0-.51-.86,1.43,1.43,0,0,0-1.11-.3,1.46,1.46,0,0,0-.89.52l-.23.28a.18.18,0,0,1-.25,0h0a.18.18,0,0,1,0-.27l.21-.28a1.85,1.85,0,0,1,1.14-.66,1.82,1.82,0,0,1,1.4.36,1.75,1.75,0,0,1,.65,1.12,1.8,1.8,0,0,1-.36,1.4l-1.85,2.33,2.58-.42a.18.18,0,0,1,.21.16h0a.18.18,0,0,1-.15.21h0l-3,.5h0a.15.15,0,0,1-.16,0A.21.21,0,0,1,340.56,479Z" fill="#fff"/><path d="M352.24,472.19l-1.17,1.67a1.87,1.87,0,0,1,.25,3.7h0a1.83,1.83,0,0,1-1.38-.32.19.19,0,0,1,.22-.32h0a1.48,1.48,0,0,0,2.07-.31l0-.06a1.48,1.48,0,0,0-.34-2.06,1.42,1.42,0,0,0-1.09-.26.17.17,0,0,1-.17,0h0a.19.19,0,0,1,0-.27h0l1.12-1.61-2.1.35a.19.19,0,0,1-.21-.17h0a.16.16,0,0,1,.13-.21h0l2.57-.42a.19.19,0,0,1,.23.15h0v.09a.12.12,0,0,1-.13.08Z" fill="#fff"/><path d="M357.5,475.42l-2.95.47h0a.11.11,0,0,1-.11,0,.17.17,0,0,1-.07-.24v0l2.5-4.42h0a.18.18,0,0,1,.25,0h0l.07.08h0l.61,3.71h.37a.21.21,0,0,1,.22.16.18.18,0,0,1-.13.21h-.4l.16.92a.19.19,0,0,1-.17.22h0a.17.17,0,0,1-.2-.15h0Zm0-.38-.53-3.18-2.16,3.59Z" fill="#fff"/><path d="M359.74,475.63a.2.2,0,0,1,0-.27.21.21,0,0,1,.28,0,1.48,1.48,0,0,0,2.05-.34,1.48,1.48,0,0,0,.26-1.1,1.52,1.52,0,0,0-.6-1,1.45,1.45,0,0,0-1.09-.25,1.54,1.54,0,0,0-1,.6.2.2,0,0,1-.27,0h0l-.1-2.23a.15.15,0,0,1,.07-.15.11.11,0,0,1,.11,0l2.58-.42a.21.21,0,0,1,.23.15h0a.23.23,0,0,1-.17.23l-2.37.39.08,1.64a1.78,1.78,0,0,1,.87-.4,1.82,1.82,0,0,1,1.39.33,1.77,1.77,0,0,1,.75,1.2,1.86,1.86,0,0,1-1.52,2.14h0A1.85,1.85,0,0,1,359.74,475.63Z" fill="#fff"/><path d="M364.31,471.08A2.2,2.2,0,0,1,366,469.6a.18.18,0,0,1,.21.13h0a.2.2,0,0,1-.16.23,1.84,1.84,0,0,0-1.41,1.29,3.21,3.21,0,0,0-.22,1.14,1.81,1.81,0,1,1,.58,2.5,1.86,1.86,0,0,1-.83-1.21l-.07-.35A4.58,4.58,0,0,1,364.31,471.08Zm.27,2.57v.11h0a1.46,1.46,0,1,0,0-.18Z" fill="#fff"/><rect x="285.39" y="494" width="47.98" height="2.35" transform="translate(-76.11 56.64) rotate(-9.32)" fill="#fff"/><rect x="286.34" y="500.31" width="33.97" height="2.35" transform="translate(-77.21 55.74) rotate(-9.32)" fill="#fff"/><rect x="320.08" y="450.32" width="23.93" height="2.35" transform="matrix(0.99, -0.16, 0.16, 0.99, -68.74, 59.73)" fill="#fff"/><path d="M706,325.8s-8.73,192.81-17,225.9l-228.77-5.19c-10.57-27-2.36-96.85-2.36-96.85-11.86,13.77-28.72,14.87-34.74,14.79a11.9,11.9,0,0,1-4-.72c-67.29-25-88.07-152-88.07-152a31.93,31.93,0,0,0,25.56-4.23,17.58,17.58,0,0,0,1.44-1.05c42.26-18.2,50.47-10.57,50.47-10.57C406.8,354,419.13,371,419.13,371c1.68,5.46,3.6,8.87,5.55,10.88,6.93,7.08,14.4-3.25,14.4-3.25,14.08-21.7,42.85-50.47,42.85-50.47,10-9.39,43-20.93,43-20.93l116.35-6.35S698.81,314.22,706,325.8Z" fill="#243e5b"/><path d="M672,588.46s-8.82,10.29-15.07-10.29c0,0-10.66-34.19-21-40.07C636,538.1,666.83,537,672,588.46Z" fill="#243e5b"/><path d="M672,588.46s-8.82,10.29-15.07-10.29c0,0-10.66-34.19-21-40.07C636,538.1,666.83,537,672,588.46Z" opacity="0.2"/><path d="M554.62,403.55,549.93,373s5.68.16,11.39-17.92c0,0,4.74-12.28,6-20.13l1.06-3.84,8.94,7.8,1.33,8.37Z" fill="#fff"/><path d="M559.49,278.2s-7.72,18.38-11.76,23.16c0,0,7,14.34,5.51,20.59,0,0,37.5-29.05,58.08-33.46,0,0-9.92-3.3-10.66-16.17Z" fill="#f9b499"/><path d="M559.49,278.2l-6.25,13.42s34.46,2.48,47.42-19.3Z" fill="#f7a48b"/><ellipse cx="575.8" cy="220.7" rx="45.01" ry="62.15" fill="#f9b499"/><path d="M625.47,140C645.8,152.16,637.66,180,637.66,180c43.57,34.27-21.49,68-21.49,68,2.91-5.81,3.49-14.53,3.49-14.53l-5.23-9.29c-5.23-42.4-27.3-34.27-27.3-34.27-33.11,8.71-49.37-1.16-49.37-1.16s-17.47-4.79-18.21-25.16c-.92-25,23.85-43.47,47.64-35.7,7.41,2.42,15.79,6.91,25.17,14.39C592.36,142.28,608.62,129.51,625.47,140Z" fill="#599b7a"/><path d="M534.13,338.49s.24-23,13.6-37.13c0,0,6.82,11.75,5.51,20.59,0,0,29.78-24.63,58.08-33.46l9.56,1.84s-25.73,22.06-44.11,57.72c0,0-5.07-12.58-23.8-25C553,323.05,540.38,327.46,534.13,338.49Z" fill="#e6e7e8"/><path d="M620.88,290.33s19.19,2.47,20.41,10.57c0,0-10.94,15-7.7,31.19,0,0-21.06-13-18.22-2.43a147.54,147.54,0,0,0,10.93,18.22s4.56,2.74-3.41,7a127.83,127.83,0,0,0-35.4,27.41c-17.37,19.5-38.58,48.8-39.77,76.57a477.41,477.41,0,0,1,6.9-55.32S570,336.47,620.88,290.33Z" fill="#243e5b"/><path d="M620.88,290.33s19.19,2.47,20.41,10.57c0,0-10.94,15-7.7,31.19,0,0-21.06-13-18.22-2.43a147.54,147.54,0,0,0,10.93,18.22s4.56,2.74-3.41,7a127.83,127.83,0,0,0-35.4,27.41c-17.37,19.5-38.58,48.8-39.77,76.57a477.41,477.41,0,0,1,6.9-55.32S570,336.47,620.88,290.33Z" fill="#fff" opacity="0.4"/><path d="M511.5,337.51c3.56-3,13.44-12.8,13.44-30.27l22.79-5.88s-12.5,11.76-13.6,37.13c0,0-1.11,82.34-3.31,99.62,0,0-13.2-71.89-26.43-91.45a1.22,1.22,0,0,1,.78-1.9c6.77-1.23,27.88-5.44,6.7-6.22A.58.58,0,0,1,511.5,337.51Z" fill="#243e5b"/><path d="M511.5,337.51c3.56-3,13.44-12.8,13.44-30.27l22.79-5.88s-12.5,11.76-13.6,37.13c0,0-1.11,82.34-3.31,99.62,0,0-13.2-71.89-26.43-91.45a1.22,1.22,0,0,1,.78-1.9c6.77-1.23,27.88-5.44,6.7-6.22A.58.58,0,0,1,511.5,337.51Z" fill="#fff" opacity="0.4"/><path d="M658.74,522.66s39.71,14.7,47.79,37.49c0,0,83.82-60.28,67.64-107.34,0,0-24.63-70.94-68.19-127l-6.8,110.09s26.47,16.18-.73,48.53Z" fill="#243e5b"/><path d="M636,538.1l22.79-15.44s41.54,14.7,47.79,37.49c0,0-29.4,43-34.55,28.31C672,588.46,670.14,541.41,636,538.1Z" fill="#243e5b"/><path d="M636,538.1l22.79-15.44s41.54,14.7,47.79,37.49c0,0-29.4,43-34.55,28.31C672,588.46,670.14,541.41,636,538.1Z" fill="#fff" opacity="0.4"/><path d="M680.8,576.33s-8.45-21.69-25.36-29.41c0,0,14.33,11.76,16.54,41.54,0,0,2,9.47,15.44-4.78,0,0,7.72-6.62,19.11-23.53l-1.1-3.67Z" fill="#fff" opacity="0.4"/><path d="M710.94,454.28s36.4-4.78,49.26,11c0,0-26.46-14-50.36.37C709.84,465.68,711.31,458,710.94,454.28Z" opacity="0.2"/><path d="M645.88,530.75s41.17-29.05,35.29-57c0,0-7.72-78.3,9.19-68l9.56,18-1.47,23.16-7.72-11-4.05,51.84,9.93-13.24-1.84,13.6S654,528.91,645.88,530.75Z" opacity="0.2"/><path d="M645.51,540.3s-12.13,8.09-21,3.31c0,0-4.41-4-12.87-4l-7.72,57s27.57,10.29,44.48-9.56l20.26-16.88S665.93,549.4,645.51,540.3Z" fill="#f9b499"/><path d="M633.59,332.09s12.29-37.35,40.23-13.45l31.24,22.42.92-15.25s-.18-6.81-40.25-18.57l-24.44-6.34A42.43,42.43,0,0,0,633.59,332.09Z" opacity="0.2"/><path d="M467.5,342.9s-14.87,68.56-10.09,94.54c0,0,24.7-102.81,33.52-115.22,0,0-3.58,0-15.16,12.41Z" opacity="0.2"/><path d="M337.06,339.75s38,1,71.06-20l.44-23.84s-11.94-7.71-50.48,10.57a30,30,0,0,1-27,5.28Z" fill="#243e5b"/><path d="M337.06,339.75s38,1,71.06-20l.44-23.84s-11.94-7.71-50.48,10.57a30,30,0,0,1-27,5.28Z" fill="#fff" opacity="0.4"/><path d="M331.06,252.17s-12-5-3.51-7c0,0,6.31-2.71,35.19,14.13a32,32,0,0,0,13.36,4.3c3.8.32,8,.18,10.5-1.42,0,0,19.52-8.5,19.52,10.51,0,0,.5,14.51-2.5,21.52,0,0-23-.5-38,9C365.58,303.22,366.59,273.19,331.06,252.17Z" fill="#f9b499"/><ellipse cx="624.21" cy="224.13" rx="14.45" ry="8.94" transform="translate(136.46 673.55) rotate(-62.41)" fill="#f9b499"/><path d="M567.3,334.9S559,370.75,549.93,373l4.69,30.6s-9.48,41.49-6.52,93.74l-20.59-1.1s7.72-137.85,6.62-157.7c0,0,6.8-11.4,18.84-15.44C553,323.05,565.56,331.69,567.3,334.9Z" fill="#599b7a"/><path d="M533.94,366.06a23.14,23.14,0,0,1,7.75,0,11.7,11.7,0,0,0,11-3.43c4.1-4.42,9.12-13,13.4-29.69l1.19,1.93s-7.44,34.47-17.37,38.05c0,0-12.86-4.5-13.23,1.38l-.92,122.23-8.27-.37S534.13,374.33,533.94,366.06Z" opacity="0.2"/><path d="M424.68,381.89l-.05.39s-16-11-22.51-44c0,0-6-37-45.55-30.52a2,2,0,0,0,.07-.21,17.58,17.58,0,0,0,1.44-1.05c42.26-18.2,50.47-10.57,50.47-10.57C406.8,354,419.13,371,419.13,371,420.81,376.47,422.73,379.88,424.68,381.89Z" fill="#fff" opacity="0.4"/><path d="M311.79,161.71c.26-1.35.43-2.58.56-3.85s.19-2.58.19-3.87a21,21,0,0,0-.36-4,9.5,9.5,0,0,0-1.79-4.25,5.54,5.54,0,0,0-2.2-1.66,5.42,5.42,0,0,0-1.31-.36,6,6,0,0,0-1.27-.05,7.61,7.61,0,0,0-4.31,1.72,11.88,11.88,0,0,0-2.74,3.13,10.93,10.93,0,0,0-1.5,3.89,4.72,4.72,0,0,0,.19,2.47,2.78,2.78,0,0,0,1,1.26,2.93,2.93,0,0,0,1.44.47,2.67,2.67,0,0,0,1.51-.36,3.16,3.16,0,0,0,1-1,5.54,5.54,0,0,0,.77-2.05,11.34,11.34,0,0,0,0-3.94,9.45,9.45,0,0,0-1.39-3.65,4.43,4.43,0,0,0-1.51-1.41,3.23,3.23,0,0,0-2.07-.35,6.24,6.24,0,0,0-3.27,1.93,20.61,20.61,0,0,0-3.88,6.18,20.38,20.38,0,0,1,4.3-5.75,5.43,5.43,0,0,1,3-1.47,2.6,2.6,0,0,1,2.42,1.53,7.9,7.9,0,0,1,.86,3.2,9.68,9.68,0,0,1-.28,3.3,3.54,3.54,0,0,1-.6,1.27.79.79,0,0,1-.33.27.49.49,0,0,1-.24,0,.58.58,0,0,1-.25-.12,1.34,1.34,0,0,1-.07-.18,2.36,2.36,0,0,1,.09-1.12,9,9,0,0,1,3.61-4.84,4.1,4.1,0,0,1,2.42-.75,3.07,3.07,0,0,1,.53.07,2.17,2.17,0,0,1,.42.17,1.88,1.88,0,0,1,.6.59,5.92,5.92,0,0,1,.72,2.49,17.32,17.32,0,0,1,0,3.22,31.34,31.34,0,0,1-.45,3.35c-.21,1.11-.47,2.28-.76,3.29Z" fill="#243e5b"/><path d="M311.79,161.71c.26-1.35.43-2.58.56-3.85s.19-2.58.19-3.87a21,21,0,0,0-.36-4,9.5,9.5,0,0,0-1.79-4.25,5.54,5.54,0,0,0-2.2-1.66,5.42,5.42,0,0,0-1.31-.36,6,6,0,0,0-1.27-.05,7.61,7.61,0,0,0-4.31,1.72,11.88,11.88,0,0,0-2.74,3.13,10.93,10.93,0,0,0-1.5,3.89,4.72,4.72,0,0,0,.19,2.47,2.78,2.78,0,0,0,1,1.26,2.93,2.93,0,0,0,1.44.47,2.67,2.67,0,0,0,1.51-.36,3.16,3.16,0,0,0,1-1,5.54,5.54,0,0,0,.77-2.05,11.34,11.34,0,0,0,0-3.94,9.45,9.45,0,0,0-1.39-3.65,4.43,4.43,0,0,0-1.51-1.41,3.23,3.23,0,0,0-2.07-.35,6.24,6.24,0,0,0-3.27,1.93,20.61,20.61,0,0,0-3.88,6.18,20.38,20.38,0,0,1,4.3-5.75,5.43,5.43,0,0,1,3-1.47,2.6,2.6,0,0,1,2.42,1.53,7.9,7.9,0,0,1,.86,3.2,9.68,9.68,0,0,1-.28,3.3,3.54,3.54,0,0,1-.6,1.27.79.79,0,0,1-.33.27.49.49,0,0,1-.24,0,.58.58,0,0,1-.25-.12,1.34,1.34,0,0,1-.07-.18,2.36,2.36,0,0,1,.09-1.12,9,9,0,0,1,3.61-4.84,4.1,4.1,0,0,1,2.42-.75,3.07,3.07,0,0,1,.53.07,2.17,2.17,0,0,1,.42.17,1.88,1.88,0,0,1,.6.59,5.92,5.92,0,0,1,.72,2.49,17.32,17.32,0,0,1,0,3.22,31.34,31.34,0,0,1-.45,3.35c-.21,1.11-.47,2.28-.76,3.29Z" opacity="0.3" style="isolation:isolate"/><path d="M317,219.79c3.51,5,2.79,20.1,4.92,22.21s23.89,1.9,25.35.65.78-6.59,2.42-7.48C350.31,234.82,317,219.79,317,219.79Z" fill="#243e5b"/><path d="M349.66,235.18a2.37,2.37,0,0,0-.93,1.61A103.1,103.1,0,0,1,319.58,229c-.51-3.69-1.23-7.2-2.58-9.16C317,219.79,350.31,234.82,349.66,235.18Z" opacity="0.1" style="isolation:isolate"/><path d="M421.3,220c-4.39,6.33-2,19.86-4.14,22s-23.89,1.9-25.36.65-.79-6.89-1.66-8C389.69,234.13,421.3,220,421.3,220Z" fill="#243e5b"/><path d="M421.3,220c-1.64,2.36-2.34,5.73-2.67,9.12a98.79,98.79,0,0,1-28,7.75,4.73,4.73,0,0,0-.48-2.19C389.69,234.13,421.3,220,421.3,220Z" opacity="0.1" style="isolation:isolate"/><path d="M367.9,129.32c-48.89,0-67.6,34.28-67.6,54.34,0,19.8,14.21,53.39,67.6,53.39S439,208.55,439,183.17,417.29,129.32,367.9,129.32Z" fill="#243e5b"/><path d="M385.86,131.8s20-15.34,41.66-13.51c7.45.63-4.93,16.79-5.17,29.41Z" fill="#243e5b"/><path d="M414,141.53c-.13.8,6.78,3.75,7.49,3.29s1.43-10.39,7.07-21C429.39,122.28,415.35,133,414,141.53Z" opacity="0.1" style="isolation:isolate"/><path d="M418.35,180.92a3.56,3.56,0,0,0,2.87-2.51,5.32,5.32,0,0,1-2.32,4,.11.11,0,0,0,.07.21c3.83-1.44,3.45-6.89,2.07-10.28a4.84,4.84,0,0,0-.23-.57c-.86-2-2.35-3.45-4.23-3.18C410.4,169.45,412.63,181.74,418.35,180.92Z" opacity="0.3" style="isolation:isolate"/><path d="M433.08,163.41c1,2.88,9.65.54,11.83,2.37,3.45,2.85,2.5,38.32-.65,41.18-1.78,1.6-11.62-.09-14.38,1.87S433.08,163.41,433.08,163.41Z" fill="#243e5b"/><path d="M445.41,185.51c0,8.61-.72,15.64-1.62,15.64s-1.61-7-1.61-15.64.73-15.65,1.61-15.65S445.41,176.86,445.41,185.51Z" opacity="0.1" style="isolation:isolate"/><path d="M343.87,140.69c.14,0,14.9-4.85,28.64-1.09l1.37-5c-15.29-4.18-31,1-31.66,1.17l1.65,4.93-.82-2.46Z" opacity="0.3" style="isolation:isolate"/><path d="M323.37,216c-19.72-22.67-7.66-49-7.11-50.11a3.25,3.25,0,1,0-5.83-2.86,55.13,55.13,0,0,0-4.65,18.89c-.94,14.42,3.83,27.66,15.11,36.67C324.29,221.32,325.9,218.92,323.37,216Z" fill="#fff"/><path d="M314.78,155.84a3.53,3.53,0,1,0,3.54-3.52h0a3.52,3.52,0,0,0-3.53,3.51Z" fill="#fff"/><path d="M308.48,552l.27-.9a33.82,33.82,0,0,0-4.28-4,17.14,17.14,0,0,0-7.12,1.17,8.46,8.46,0,0,0-.11,3.17c.08.4,5.28,1.28,6.16,1.33A48.63,48.63,0,0,0,308.48,552Z" fill="#243e5b"/><path d="M308.71,551.07l-.26.9s2.21,1.58,2.29,1.76a1.3,1.3,0,0,1,0,.57H313v-3.17a4.51,4.51,0,0,1-1,.44A32.13,32.13,0,0,1,308.71,551.07Z" fill="#ffc727"/><g opacity="0.1"><path d="M308.48,552l.27-.9a33.82,33.82,0,0,0-4.28-4,17.14,17.14,0,0,0-7.12,1.17,8.46,8.46,0,0,0-.11,3.17c.08.4,5.28,1.28,6.16,1.33A48.63,48.63,0,0,0,308.48,552Z"/><path d="M308.71,551.07l-.26.9s2.21,1.58,2.29,1.76a1.3,1.3,0,0,1,0,.57H313v-3.17a4.51,4.51,0,0,1-1,.44A32.13,32.13,0,0,1,308.71,551.07Z"/></g><path d="M349.77,586.22c.23,8.64,3.67,19.26,11.33,19.26.75,0,11.08.19,11.69,0,6.19-2,9.84-13.31,9.15-23.24-.54-7.74-3-16.4-9.5-17.41H360.75C353,564.76,349.5,576.89,349.77,586.22Z" fill="#599b7a"/><path d="M349.77,586.22c.23,8.64,3.67,19.26,11.33,19.26.75,0,11.08.19,11.69,0,6.19-2,9.84-13.31,9.15-23.24-.54-7.74-3-16.4-9.5-17.41H360.75C353,564.76,349.5,576.89,349.77,586.22Z" opacity="0.2"/><path d="M362.07,586.22c.24,8.64,3.67,19.26,11.33,19.26s11.18-12.27,10.41-23.27c-.57-8.26-3.25-17.42-10.72-17.42C365.35,564.76,361.81,576.89,362.07,586.22Z" fill="#599b7a"/><path d="M365.25,586c.21,6.67,2.77,14.84,8.44,14.84s8.22-9.5,7.63-17.93c-.44-6.33-2.44-13.42-7.92-13.42S365,578.79,365.25,586Z" fill="#fff"/><path d="M375.16,570.89c-.11,2.71-.52,11.34-1.11,11.34s-1.94-8.16-2.45-11.09a4.31,4.31,0,0,1,2-.49A5.15,5.15,0,0,1,375.16,570.89Z" fill="#599b7a"/><path d="M373,582.73c-.31.24-3.08-3.66-5.1-6.57a12.23,12.23,0,0,1,1.81-3.4C371,576.13,373.39,582.46,373,582.73Z" fill="#599b7a"/><path d="M372.47,583.75c-.14.34-3.17-1-5.81-2.33a24.27,24.27,0,0,1,.6-3.17C369.72,580.47,372.64,583.3,372.47,583.75Z" fill="#599b7a"/><path d="M372.18,585c0,.41-3,1-5.73,1.42v-.47c0-.89,0-1.79,0-2.68C369.22,583.78,372.15,584.51,372.18,585Z" fill="#599b7a"/><path d="M367.31,592a27,27,0,0,1-.7-3.69c2.63-1.22,5.7-2.53,5.94-2.12S369.6,589.81,367.31,592Z" fill="#599b7a"/><path d="M370.57,598.29a10.34,10.34,0,0,1-2.44-3.7c1.7-2.9,4.59-7.68,5-7.36S371.3,595.68,370.57,598.29Z" fill="#599b7a"/><path d="M376.55,598.77a4.21,4.21,0,0,1-2.51.84,4.45,4.45,0,0,1-1-.11c.08-2.27.5-11.65,1.12-11.65S376,595.7,376.55,598.77Z" fill="#599b7a"/><path d="M379.72,593.28a14.18,14.18,0,0,1-1.58,3.56c-1.32-3.36-3.44-9-3-9.25S377.82,590.57,379.72,593.28Z" fill="#599b7a"/><path d="M380.65,588.34a29.3,29.3,0,0,1-.42,2.94c-2.14-2-4.36-4.24-4.2-4.64S378.38,587.21,380.65,588.34Z" fill="#599b7a"/><path d="M380.77,584.05v2.74c-2.28-.48-4.41-1-4.44-1.43S378.47,584.41,380.77,584.05Z" fill="#599b7a"/><path d="M380.64,582.23c-2.2,1-4.4,2-4.61,1.58s2.11-2.88,4.13-5A28.14,28.14,0,0,1,380.64,582.23Z" fill="#599b7a"/><path d="M379.53,576.38h0c-1.58,2.82-3.93,6.62-4.34,6.34s1.41-7.37,2.2-10.33A11.11,11.11,0,0,1,379.53,576.38Z" fill="#599b7a"/><path d="M263,586.22c.24,8.64,3.67,19.26,11.35,19.26.75,0,11,.19,11.69,0,6.17-2,9.83-13.31,9.13-23.24-.54-7.74-3-16.4-9.5-17.41h-11.7C266.24,564.76,262.71,576.89,263,586.22Z" fill="#599b7a"/><path d="M263,586.22c.24,8.64,3.67,19.26,11.35,19.26.75,0,11,.19,11.69,0,6.17-2,9.83-13.31,9.13-23.24-.54-7.74-3-16.4-9.5-17.41h-11.7C266.24,564.76,262.71,576.89,263,586.22Z" opacity="0.2"/><path d="M275.23,586.22c.24,8.64,3.69,19.26,11.35,19.26s11.16-12.27,10.4-23.27c-.58-8.26-3.24-17.42-10.73-17.42C278.54,564.76,275,576.89,275.23,586.22Z" fill="#599b7a"/><path d="M278.4,586c.19,6.67,2.75,14.84,8.42,14.84s8.23-9.5,7.63-17.93c-.44-6.33-2.42-13.42-7.92-13.42S278.25,578.79,278.4,586Z" fill="#fff"/><path d="M288.37,570.89c-.13,2.71-.52,11.34-1.11,11.34s-2-8.16-2.47-11.09a4.39,4.39,0,0,1,2-.49A5.25,5.25,0,0,1,288.37,570.89Z" fill="#599b7a"/><path d="M286.19,582.73c-.3.24-3.09-3.66-5.1-6.57a12.52,12.52,0,0,1,1.82-3.4C284.21,576.13,286.61,582.46,286.19,582.73Z" fill="#599b7a"/><path d="M285.66,583.75c-.14.34-3.16-1-5.81-2.33.15-1.07.35-2.12.6-3.17C282.92,580.47,285.84,583.3,285.66,583.75Z" fill="#599b7a"/><path d="M285.39,585c0,.41-3,1-5.74,1.42v-3.15C282.43,583.78,285.36,584.51,285.39,585Z" fill="#599b7a"/><path d="M280.5,592a26.94,26.94,0,0,1-.68-3.69c2.63-1.22,5.7-2.53,5.92-2.12S282.8,589.81,280.5,592Z" fill="#599b7a"/><path d="M283.76,598.29a10.16,10.16,0,0,1-2.42-3.7c1.7-2.9,4.58-7.68,5-7.36S284.51,595.68,283.76,598.29Z" fill="#599b7a"/><path d="M289.68,598.77a4.19,4.19,0,0,1-2.51.84,4.68,4.68,0,0,1-1.05-.11c.1-2.27.51-11.65,1.13-11.65S289.15,595.7,289.68,598.77Z" fill="#599b7a"/><path d="M293,593.28a13.86,13.86,0,0,1-1.59,3.56c-1.31-3.36-3.42-9-3-9.25S291.06,590.57,293,593.28Z" fill="#599b7a"/><path d="M293.85,588.34a26.31,26.31,0,0,1-.41,2.94c-2.16-2-4.36-4.24-4.21-4.64S291.57,587.21,293.85,588.34Z" fill="#599b7a"/><path d="M294,584.05a25,25,0,0,1,0,2.74c-2.26-.48-4.39-1-4.42-1.43S291.68,584.41,294,584.05Z" fill="#599b7a"/><path d="M293.85,582.23c-2.2,1-4.42,2-4.61,1.58s2.09-2.88,4.12-5C293.58,579.94,293.74,581.08,293.85,582.23Z" fill="#599b7a"/><path d="M292.72,576.38h0c-1.58,2.82-3.92,6.62-4.32,6.34s1.4-7.37,2.19-10.33A10.64,10.64,0,0,1,292.72,576.38Z" fill="#599b7a"/><path d="M428.8,586.22c.24,8.64,3.67,19.26,11.35,19.26.75,0,11,.19,11.69,0,6.17-2,9.83-13.31,9.13-23.24-.54-7.74-3-16.4-9.5-17.41h-11.7C432,564.76,428.47,576.89,428.8,586.22Z" fill="#599b7a"/><path d="M428.8,586.22c.24,8.64,3.67,19.26,11.35,19.26.75,0,11,.19,11.69,0,6.17-2,9.83-13.31,9.13-23.24-.54-7.74-3-16.4-9.5-17.41h-11.7C432,564.76,428.47,576.89,428.8,586.22Z" fill="#599b7a"/><path d="M428.8,586.22c.24,8.64,3.67,19.26,11.35,19.26.75,0,11,.19,11.69,0,6.17-2,9.83-13.31,9.13-23.24-.54-7.74-3-16.4-9.5-17.41h-11.7C432,564.76,428.47,576.89,428.8,586.22Z" opacity="0.2"/><path d="M441,586.22c.24,8.64,3.69,19.26,11.35,19.26s11.17-12.27,10.41-23.27c-.59-8.26-3.17-17.42-10.74-17.42S440.77,576.89,441,586.22Z" fill="#599b7a"/><path d="M444.22,586c.19,6.67,2.75,14.84,8.42,14.84s8.24-9.5,7.63-17.93c-.44-6.33-2.42-13.42-7.91-13.42S444,578.79,444.22,586Z" fill="#c7c7c7"/><path d="M454.13,570.89c-.13,2.71-.52,11.34-1.11,11.34s-2-8.16-2.47-11.09a4.39,4.39,0,0,1,2-.49A5.2,5.2,0,0,1,454.13,570.89Z" fill="#599b7a"/><path d="M452,582.73c-.31.24-3.16-3.66-5.11-6.57a12.52,12.52,0,0,1,1.82-3.4C450,576.13,452.37,582.46,452,582.73Z" fill="#599b7a"/><path d="M451.42,583.75c-.14.34-3.16-1-5.81-2.33a28.18,28.18,0,0,1,.62-3.17C448.68,580.47,451.6,583.3,451.42,583.75Z" fill="#599b7a"/><path d="M451.15,585c0,.41-3,1-5.73,1.42v-3.15C448.19,583.78,451.12,584.51,451.15,585Z" fill="#599b7a"/><path d="M446.21,592a26.94,26.94,0,0,1-.68-3.69c2.63-1.22,5.7-2.53,5.93-2.12S448.56,589.81,446.21,592Z" fill="#599b7a"/><path d="M449.52,598.29a10.16,10.16,0,0,1-2.42-3.7c1.7-2.9,4.58-7.68,5-7.36S450.27,595.68,449.52,598.29Z" fill="#599b7a"/><path d="M455.44,598.77a4.19,4.19,0,0,1-2.51.84,4.68,4.68,0,0,1-1.05-.11c.1-2.27.51-11.65,1.13-11.65S454.91,595.7,455.44,598.77Z" fill="#599b7a"/><path d="M458.71,593.28a13.86,13.86,0,0,1-1.59,3.56c-1.31-3.36-3.42-9-3-9.25S456.79,590.57,458.71,593.28Z" fill="#599b7a"/><path d="M459.62,588.34a29.3,29.3,0,0,1-.42,2.94c-2.16-2-4.36-4.24-4.2-4.64S457.3,587.21,459.62,588.34Z" fill="#599b7a"/><path d="M459.72,584.05a25,25,0,0,1,0,2.74c-2.26-.48-4.39-1-4.42-1.43S457.44,584.41,459.72,584.05Z" fill="#599b7a"/><path d="M459.61,582.23c-2.2,1-4.42,2-4.61,1.58s2.09-2.88,4.12-5C459.34,579.94,459.5,581.08,459.61,582.23Z" fill="#599b7a"/><path d="M458.48,576.38h0c-1.58,2.82-3.92,6.62-4.32,6.34s1.4-7.37,2.19-10.33A10.64,10.64,0,0,1,458.48,576.38Z" fill="#599b7a"/><path d="M383.92,599.1h51.67a95.67,95.67,0,0,0,5-8.9c.27-1.21-.9-25.71,11.75-25.71,11.08,0,10.53,24.59,10.53,24.59l1.36-2.07.3-3.6-.87-2.12s1.58-15.07.87-17.14-7.49-10.79-7.91-11.25-7.92-1.72-8.41-2.18-21.29-17.61-30.56-19.63-29.47-3.64-42.46-3.64-42.66,3.51-45.09,4.32-24.79,21.72-24.79,21.72-23.75,3.06-26.91,3.77S263.12,566,262.56,567s-2.07,12.3-2.07,12.3a24.77,24.77,0,0,0-1.27,3.43c0,.65,1.48,11.39,1.68,11.94a14,14,0,0,0,2.93,3.29c.51.21,84.78,1.32,85.83,1.11a40.12,40.12,0,0,0,6.69-2.15c.81-.54,2.38-32.19,16.88-32.19C385.94,564.76,384.93,588.94,383.92,599.1Z" fill="#243e5b"/><path d="M313.4,598.79c-23.29-.31-49.19-.69-49.47-.8A13.52,13.52,0,0,1,261,594.7c-.21-.55-1.73-11.29-1.68-11.94a23.79,23.79,0,0,1,1.27-3.45S262.17,568,262.66,567s12.67-9.06,15.83-9.77,26.92-3.77,26.92-3.77-21.5,4.75-22.61,5.78-9.5,10-10.39,11.37S271.3,582.18,271,583s-2.33,6.11-2.54,7a13.5,13.5,0,0,0,1,4.86C269.74,595.13,311.44,598.63,313.4,598.79Z" opacity="0.1" style="isolation:isolate"/><path d="M383.92,599.1c.91-9.23,1.83-30-7.44-33.75,4.74.87,11.35,8.63,11.62,28.91l47.49,4.84Z" opacity="0.1" style="isolation:isolate"/><g opacity="0.6"><path d="M434.39,586a57.46,57.46,0,0,1,3.16-14.36c.43-1.15.92-2.29,1.46-3.4a24.78,24.78,0,0,1,1.89-3.17,16.19,16.19,0,0,1,2.42-2.81,18.21,18.21,0,0,1,1.45-1.18,13.82,13.82,0,0,1,1.59-.9,9.51,9.51,0,0,1,3.64-.85,8.62,8.62,0,0,1,3.69.55,11.46,11.46,0,0,1,5.44,4.94,26.75,26.75,0,0,1,2.84,6.81,42.44,42.44,0,0,1,1.33,7.25,42.16,42.16,0,0,0-1.59-7.19,26.61,26.61,0,0,0-2.83-6.63,11.25,11.25,0,0,0-5.29-4.75,8.16,8.16,0,0,0-3.53-.52,9.49,9.49,0,0,0-3.47.83,10.61,10.61,0,0,0-1.58.88,10.83,10.83,0,0,0-1.41,1.12,15.85,15.85,0,0,0-2.39,2.72,30.35,30.35,0,0,0-3.34,6.48,55.33,55.33,0,0,0-2.14,7A63.86,63.86,0,0,0,434.39,586Z" fill="#fff"/><path d="M356,586a57.2,57.2,0,0,1,3-14,30.4,30.4,0,0,1,3.17-6.51,21.29,21.29,0,0,1,2.29-2.81,13.37,13.37,0,0,1,2.92-2.21,11.47,11.47,0,0,1,3.48-1.09,10.34,10.34,0,0,1,9.62,4.2,23,23,0,0,1,3.52,6.33,37.08,37.08,0,0,1,1.84,6.95,35.94,35.94,0,0,0-2.05-6.87,23,23,0,0,0-3.57-6.16,11,11,0,0,0-5.8-3.8,10.56,10.56,0,0,0-3.5-.19,10.72,10.72,0,0,0-3.34,1.08,13.65,13.65,0,0,0-2.82,2.09,19.08,19.08,0,0,0-2.24,2.75,31.31,31.31,0,0,0-3.17,6.34,52.71,52.71,0,0,0-2.06,6.87A62.78,62.78,0,0,0,356,586Z" fill="#fff"/><path d="M384.63,568.12c3.29-1,6.58-1.93,9.89-2.87h0L413,563.46l18.47-1.58h0l6.07-2.09,6.05-2.06-6,2.17-6,2.16h0L413,563.8l-18.48,1.58h0C391.26,566.35,387.94,567.22,384.63,568.12Z" fill="#fff"/><path d="M308,553.51l-10,4.27L287.9,562h0l-4,7.5-.09-.15c9.67,0,19.36.11,29,.25h0l11.53-6.79h0l14.37-4.28,14.39-4.24-14.28,4.39-14.36,4.33h0L313,569.8h-.08c-9.68,0-19.37-.21-29-.3h-.19l.1-.18,4.1-7.44h0L298,557.69Z" fill="#fff"/></g><g opacity="0.3"><path d="M307.26,553.49,287,558.24l-2.51.62c-.43.09-.84.22-1.25.33l-.3.1h-.15l-.11.09a5.77,5.77,0,0,0-.42.44c-1.13,1.3-2.17,2.71-3.17,4.07-2.11,2.77-4.16,5.54-6.22,8.33,2-2.85,4-5.68,6-8.47,1-1.39,2.06-2.79,3.17-4.1a3.63,3.63,0,0,1,.47-.49l.14-.11h.16l.32-.11,1.26-.35L287,558c3.39-.8,6.76-1.59,10.15-2.33Z"/><path d="M372.55,554.3l-6.16,2-6.16,1.91L347.91,562c-2,.65-4.1,1.29-6.14,2a19.57,19.57,0,0,0-2.91,1.33L336,566.79l-5.75,3-5.78,2.86,5.72-3,5.73-3,2.86-1.48a19,19,0,0,1,2.93-1.37c2-.71,4.09-1.37,6.13-2L360.17,558l6.19-1.85Z"/><path d="M388.1,592.67l5.93-.12,6-.1,11.87-.17,11.89-.11,5.94-.1h2.64c.11,0,.17-.12.27-.2.65-.75,1.26-1.52,1.84-2.33-.57.81-1.14,1.58-1.78,2.37-.09.08-.16.23-.3.24a1.28,1.28,0,0,1-.39,0h-2.22l-5.95.14-11.88.23L400,592.6h-5.95Z"/><path d="M429.77,552.86c.61,3,1.23,6,1.82,9.07h0l-1.19,7.19-1.22,7.17q-1.23,7.13-2.56,14.25c.72-4.75,1.47-9.6,2.27-14.38l1.22-7.17,1.24-7.17h0C430.81,558.94,430.29,555.9,429.77,552.86Z"/><path d="M397,553.46c-.73,4-1.5,7.91-2.29,11.9h0q0,6.51-.19,13l-.15,6.49-.2,6.47v-13q0-6.51.2-13h0Q395.65,559.38,397,553.46Z"/><path d="M441.47,549.88c.42,1.3.8,2.58,1.18,3.88s.76,2.61,1.1,3.91h0c-.21,1-.42,1.9-.64,2.85s-.46,1.9-.71,2.85c.16-1,.32-1.93.51-2.9s.36-1.91.55-2.86h0c-.38-1.3-.71-2.62-1.06-3.91S441.7,551.21,441.47,549.88Z"/><polygon points="387.02 576.78 393.15 576.32 399.29 575.89 411.57 575.05 423.84 574.33 429.99 573.96 436.13 573.64 430 574.1 423.86 574.53 411.59 575.35 399.31 576.1 393.16 576.46 387.02 576.78"/><path d="M422,554.66c.11.49.21,1,.32,1.51h-.08l2.88-.32c1-.1,1.93-.19,2.88-.25l-.12.17-.29-1.39.15.09c-1.08,0-2.14.13-3.17.14,1-.15,2.1-.26,3.17-.38h.11v.12l.33,1.37v.16H428l-2.88.24c-1,.09-1.93.14-2.9.2h-.08C422.13,555.68,422.07,555.17,422,554.66Z"/><path d="M265.91,575.21c-.38,2-.86,4-1.33,5.94l-.18.73v.27h0a2.16,2.16,0,0,0,0,.36c0,.52.08,1,.11,1.58,0,1,.13,2.06.16,3.08-.16-1-.27-2-.38-3a14.58,14.58,0,0,0-.13-1.47v-.38a.74.74,0,0,1,0-.21v-.26l.18-.75C264.8,579.11,265.29,577.14,265.91,575.21Z"/><path d="M341.41,575.21c.39,1,.76,2,1.12,3s.71,2,1,3.09h0v2.31a19.83,19.83,0,0,1-.09,2.31c0-.76-.1-1.58-.12-2.31s0-1.58,0-2.31h0c-.36-1-.66-2.06-1-3.17S341.72,576.26,341.41,575.21Z"/><path d="M259.4,583.22l5.71,5.69h0l20.46.68c3.4.11,6.81.25,10.23.33H306L347,590h0l8.31-2L347,590.11h0l-40.93.11H295.81c-3.4-.09-6.81-.25-10.23-.36l-20.43-.81h0Z"/></g><path d="M402.2,552.68c.67.7,27.33-.87,27.93-.95a102.44,102.44,0,0,0,11.34-2.51c.47-.48-16.2-12.5-17.61-13.1s-16.86-1.58-19-.76C403.15,536.06,401.43,551.89,402.2,552.68Z" fill="#599b7a"/><path d="M402.2,552.68c.67.7,27.33-.87,27.93-.95a102.44,102.44,0,0,0,11.34-2.51c.47-.48-16.2-12.5-17.61-13.1s-16.86-1.58-19-.76C403.15,536.06,401.43,551.89,402.2,552.68Z" opacity="0.2"/><path d="M403.93,552c.62.64,25-.8,25.52-.87a91.2,91.2,0,0,0,10.31-2.28c.42-.42-14.81-11.39-16.11-11.95s-15.38-1.49-17.33-.7C404.8,536.77,403.22,551.23,403.93,552Z" fill="#599b7a"/><g opacity="0.1"><path d="M420.88,536.41,404,546.79a57.69,57.69,0,0,1,1.44-8.85l3.37-2.07A115.61,115.61,0,0,1,420.88,536.41Z" fill="#fff"/><path d="M434.06,544.13l-12,7.38c-2.19.13-4.64.24-7,.35L431.1,542Z" fill="#fff"/><path d="M439,548,436,549.79l-2.17.46,4.51-2.78Z" fill="#fff"/></g><path d="M422.47,536.55c.47.08,6,14.25,5.87,14.58s1.09,0,1,0-6-13.79-5.86-14.36C423.61,536.55,422.47,536.55,422.47,536.55Z" fill="#599b7a"/><path d="M307.26,553.49c.68,0,63.64.81,65.29.81s24.36-1.09,24.65-1.24,2.5-16.65,1.82-18c-.17-.36-30.7-1.95-34.43-1.95s-34.45,1.35-36.07,1.59S306.15,553.47,307.26,553.49Z" fill="#599b7a"/><path d="M307.26,553.49c.68,0,63.64.81,65.29.81s24.36-1.09,24.65-1.24,2.5-16.65,1.82-18c-.17-.36-30.7-1.95-34.43-1.95s-34.45,1.35-36.07,1.59S306.15,553.47,307.26,553.49Z" opacity="0.2"/><path d="M309.22,552.7c.63,0,59.81.76,61.35.76s23.53-1,23.75-1.17,1.74-14.74,1.11-16c-.18-.35-29.48-1.84-33-1.84s-32.37,1.25-33.89,1.58S308.18,552.68,309.22,552.7Z" fill="#599b7a"/><path d="M354,534.73l-29.51,18.16-12.67-.16,28.28-17.41Zm19,.16-29.67,18.24,6.33.08,29.31-18Zm11.68,18,7.08-.36,2.83-1.76c.14-1.08.3-2.6.46-4.26Zm3.17-17.16-28.56,17.65h1.45l28.5-17.59Zm-53.93,0h0l-20.13,12.38c-1.11,1-2.09,1.9-2.89,2.64l24.57-15.1Z" fill="#fff" opacity="0.1" style="isolation:isolate"/><path d="M332.23,570c-.89.88.66,6.33,2,6.74s10.59-.87,11.61-1.14,11.4-3.37,12.27-4.32,1.69-8.71.74-9.25-16.53,3.52-18.21,4A44.48,44.48,0,0,0,332.23,570Z" fill="#fff"/><path d="M261.9,572.76a24.56,24.56,0,0,0,3.39,3.67,9.94,9.94,0,0,0,3.89.67,17.82,17.82,0,0,0,2.23-5.12c0-.71-4.05-8.4-4.74-8.25s-4.56,2.54-4.75,3.3A18.06,18.06,0,0,0,261.9,572.76Z" fill="#fff"/><path d="M262.14,572.52c0,.51,1.3,2.06,1.45,2.26a14.83,14.83,0,0,1-1.69-2,18.35,18.35,0,0,1,0-5.73c.21-.76,4.05-3.17,4.75-3.3a15.49,15.49,0,0,0-4,3.47C262.56,567.82,262.17,572,262.14,572.52Z" fill="#dbdbdb"/><path d="M272.84,572.33c.89-.3,19.17-.85,22.77-.85s27.23.55,28.84,1.1-2,10.18-3.43,10.9S296.82,586,295.26,586s-19.35-2.5-20.41-3.16S271.37,572.84,272.84,572.33Z" fill="#599b7a"/><path d="M323.68,578.51c-.08.2-.15.39-.23.58l-50.39-.9a2.49,2.49,0,0,0-.14-.6Z" fill="#243e5b"/><path d="M275.23,594.24h47.65c1,0-4.14-3.09-5-3.16s-38.15,0-38.9,0S274.41,594.24,275.23,594.24Z" fill="#599b7a"/><path d="M263.2,592.22a62,62,0,0,0,6.68,0c.87-.19,2.9-4.75,2.77-5.51s-4.07-3-4.58-3.17a12.73,12.73,0,0,0-4.44,0C263.25,583.87,262.72,592.14,263.2,592.22Z" fill="#599b7a"/><path d="M331.69,586c-.64.83,3.7,5.77,5.36,6.34s11.8.63,12.15.52a20.83,20.83,0,0,0,.19-6,15.26,15.26,0,0,0-2.52-3.87,77.07,77.07,0,0,0-10.73.84A18.75,18.75,0,0,0,331.69,586Z" fill="#599b7a"/><path d="M406.24,551.12l-.27-.89a33.9,33.9,0,0,1,4.29-4,16.63,16.63,0,0,1,7.11,1.18,8.61,8.61,0,0,1,.11,3.16c-.08.4-5.27,1.28-6.16,1.32C409.62,551.71,407.92,551.46,406.24,551.12Z" fill="#243e5b"/><path d="M406,550.23l.27.89s-2.22,1.67-2.3,1.77,0,.57,0,.57H401.7v-3.17a6.4,6.4,0,0,0,1,.45A29.09,29.09,0,0,0,406,550.23Z" fill="#243e5b"/><rect x="489.21" y="484.05" width="13.32" height="17.52" fill="#bcbec0"/><rect x="502.52" y="484.05" width="10.48" height="17.52" fill="#d1d3d4"/><rect x="487.72" y="478.1" width="14.81" height="5.95" fill="#939598"/><rect x="502.52" y="478.1" width="11.6" height="5.95" fill="#a7a9ac"/><polygon points="549.28 606.66 445.08 606.66 441.58 557.58 549.28 556.16 549.28 606.66" fill="#bcbec0"/><polygon points="549.28 556.16 586.71 509.29 616.5 556.16 611.86 606.66 549.28 606.66 549.28 556.16" fill="#d1d3d4"/><polygon points="586.25 512.25 617.03 559.84 624.85 559.84 584.25 494.42 476.33 494.42 436.27 565.27 555.55 565.27 586.25 512.25" fill="#a7a9ac"/><rect x="576.98" y="539.68" width="16.48" height="23.55" fill="#fbfaff"/><rect x="586.13" y="541.62" width="5.3" height="8.97" fill="#d1d3d4"/><rect x="579.01" y="541.62" width="5.3" height="8.97" fill="#d1d3d4"/><rect x="586.13" y="552.29" width="5.3" height="8.97" fill="#d1d3d4"/><rect x="579.01" y="552.29" width="5.3" height="8.97" fill="#d1d3d4"/><rect x="456.34" y="574.9" width="16.48" height="23.55" fill="#fbfaff"/><rect x="458.37" y="576.82" width="5.3" height="8.95" fill="#d1d3d4"/><rect x="465.48" y="576.82" width="5.3" height="8.95" fill="#d1d3d4"/><rect x="458.37" y="587.51" width="5.3" height="8.97" fill="#d1d3d4"/><rect x="465.48" y="587.51" width="5.3" height="8.97" fill="#d1d3d4"/><rect x="486.6" y="574.9" width="16.48" height="23.55" fill="#fbfaff"/><rect x="488.64" y="576.82" width="5.3" height="8.95" fill="#d1d3d4"/><rect x="495.76" y="576.82" width="5.3" height="8.95" fill="#d1d3d4"/><rect x="488.64" y="587.51" width="5.3" height="8.97" fill="#d1d3d4"/><rect x="495.76" y="587.51" width="5.3" height="8.97" fill="#d1d3d4"/><rect x="516.89" y="574.9" width="16.48" height="23.55" fill="#fbfaff"/><rect x="518.92" y="576.82" width="5.3" height="8.95" fill="#d1d3d4"/><rect x="526.03" y="576.82" width="5.3" height="8.95" fill="#d1d3d4"/><rect x="518.92" y="587.51" width="5.3" height="8.97" fill="#d1d3d4"/><rect x="526.03" y="587.51" width="5.3" height="8.97" fill="#d1d3d4"/><rect x="576.13" y="573.63" width="18.19" height="33.01" fill="#fbfaff"/><rect x="583.27" y="575.92" width="3.92" height="4.94" fill="#d1d3d4"/><rect x="578.14" y="575.92" width="3.92" height="4.94" fill="#d1d3d4"/><rect x="581.09" y="597.59" width="8.25" height="1.19" fill="#d1d3d4"/><rect x="588.39" y="575.92" width="3.92" height="4.94" fill="#d1d3d4"/><rect x="583.27" y="582.16" width="3.92" height="4.94" fill="#d1d3d4"/><rect x="578.14" y="582.16" width="3.92" height="4.94" fill="#d1d3d4"/><rect x="588.39" y="582.16" width="3.92" height="4.94" fill="#d1d3d4"/><rect x="583.27" y="588.41" width="3.92" height="4.94" fill="#d1d3d4"/><rect x="578.14" y="588.41" width="3.92" height="4.94" fill="#d1d3d4"/><rect x="588.39" y="588.41" width="3.92" height="4.94" fill="#d1d3d4"/><path d="M519.24,511.32H495.32L483,526.67H510.1Z" fill="#939598"/><polygon points="501.13 524.05 501.13 542.67 487.81 542.67 487.81 524.05 494.46 515.73 501.13 524.05" fill="#bcbec0"/><polygon points="501.13 524.03 511.59 524.03 501.13 542.65 501.13 524.03" fill="#d1d3d4"/><rect x="490.33" y="524.33" width="7.57" height="12.78" fill="#fbfaff"/><rect x="491.27" y="525.22" width="2.43" height="4.11" fill="#d1d3d4"/><rect x="494.52" y="525.22" width="2.43" height="4.11" fill="#d1d3d4"/><rect x="491.27" y="530.08" width="2.43" height="6.1" fill="#d1d3d4"/><rect x="494.52" y="530.08" width="2.43" height="6.1" fill="#d1d3d4"/><g id="b2af79f4-167a-42de-ab60-3efa4007ada8" data-name="freepik--Bills--inject-2"><path d="M494.08,470.43V588.15h39.43v.17a12.49,12.49,0,0,0,12.21,12.52h.44a9.21,9.21,0,0,0,1.28-.06l2.35-.49a14.34,14.34,0,0,0,1.68-.67,8.67,8.67,0,0,0,.79-.43,1.85,1.85,0,0,0,.4-.24,10.59,10.59,0,0,0,1-.71l.16-.13a5.69,5.69,0,0,0,.7-.6l.35-.32A12.19,12.19,0,0,0,558,592v-.12c.09-.29.17-.61.24-.92a7.11,7.11,0,0,0,.2-1.21v-.56a.54.54,0,0,0,0-.18V470.61a12.62,12.62,0,0,1,12.67-12.55l.6,0H506.48A12.4,12.4,0,0,0,494.08,470.43Z" fill="#ebebeb"/><rect x="502.7" y="490.02" width="46.72" height="2.15" fill="#dbdbdb"/><rect x="502.7" y="496.06" width="46.72" height="2.15" fill="#dbdbdb"/><rect x="502.7" y="502.09" width="46.72" height="2.15" fill="#dbdbdb"/><rect x="502.7" y="508.13" width="46.72" height="2.15" fill="#dbdbdb"/><rect x="502.7" y="514.16" width="46.72" height="2.15" fill="#dbdbdb"/><rect x="502.7" y="520.19" width="46.72" height="2.15" fill="#dbdbdb"/><rect x="502.7" y="526.23" width="46.72" height="2.15" fill="#dbdbdb"/><rect x="502.7" y="532.25" width="46.72" height="2.15" fill="#dbdbdb"/><rect x="502.7" y="538.28" width="46.72" height="2.15" fill="#dbdbdb"/><rect x="502.7" y="544.32" width="46.72" height="2.15" fill="#dbdbdb"/><rect x="502.7" y="550.35" width="46.72" height="2.15" fill="#dbdbdb"/><rect x="502.7" y="556.39" width="46.72" height="2.15" fill="#dbdbdb"/><rect x="502.7" y="562.42" width="46.72" height="2.15" fill="#dbdbdb"/><rect x="502.7" y="568.46" width="46.72" height="2.15" fill="#dbdbdb"/><path d="M570.94,458a12.53,12.53,0,0,0-12.53,12.54v23.67h25.06V470.61A12.54,12.54,0,0,0,571,458Z" fill="#dbdbdb"/><path d="M475.81,588.15v.17A12.5,12.5,0,0,0,488,600.84h57.69a12.49,12.49,0,0,1-12.21-12.52v-.17Z" fill="#dbdbdb"/><path d="M505.84,577.71h-1v3.55a.36.36,0,0,1-.28.42.35.35,0,0,1-.42-.29.29.29,0,0,1,0-.13v-3.49h-1a.36.36,0,0,1-.34-.36.35.35,0,0,1,.33-.36h2.81a.36.36,0,0,1,.36.36A.39.39,0,0,1,505.84,577.71Z" fill="#243e5b"/><path d="M510.54,577.55a2.41,2.41,0,0,1,0,3.31,2.13,2.13,0,0,1-1.55.69,2.22,2.22,0,0,1-1.61-.69,2.45,2.45,0,0,1,0-3.31,2.22,2.22,0,0,1,1.61-.69A2.13,2.13,0,0,1,510.54,577.55Zm-.09,1.65a1.68,1.68,0,0,0-.43-1.13,1.46,1.46,0,0,0-1-.47,1.44,1.44,0,0,0-1.07.47,1.7,1.7,0,0,0,0,2.27,1.49,1.49,0,0,0,1.07.47,1.46,1.46,0,0,0,1-.47,1.75,1.75,0,0,0,.41-1.14Z" fill="#243e5b"/><path d="M514.89,577.71h-1v3.55a.36.36,0,0,1-.72,0v-3.49h-1a.36.36,0,0,1,0-.72h2.8a.36.36,0,0,1,.36.36A.38.38,0,0,1,514.89,577.71Z" fill="#243e5b"/><path d="M518.05,580.47h-1.59l-.32.85a.37.37,0,0,1-.35.23h-.11a.35.35,0,0,1-.22-.46h0l1.44-3.86a.36.36,0,0,1,.35-.22.34.34,0,0,1,.34.22l1.45,3.86a.36.36,0,0,1-.22.46h0a.13.13,0,0,1-.12,0,.33.33,0,0,1-.33-.23Zm-.28-.71-.52-1.41-.53,1.41Z" fill="#243e5b"/><path d="M519.94,581.26V577.4a.36.36,0,0,1,.36-.36.37.37,0,0,1,.36.36v3.48h1.76a.36.36,0,0,1,0,.72H520.3A.35.35,0,0,1,519.94,581.26Z" fill="#243e5b"/><path d="M524,578a.48.48,0,0,1,.48.49.5.5,0,0,1-.48.49.51.51,0,0,1-.49-.5A.49.49,0,0,1,524,578Zm0,2.57a.49.49,0,0,1,0,1h0a.49.49,0,0,1,0-1Z" fill="#243e5b"/><rect x="535.29" y="578" width="14.13" height="3.27" fill="#243e5b"/><path d="M530.58,575.6a.36.36,0,0,1,.36.36h0v.14a3.29,3.29,0,0,1,1.28.46.46.46,0,0,1-.2.88h0a.46.46,0,0,1-.25-.08,3.44,3.44,0,0,0-.86-.37v1.68c1.28.33,1.84.84,1.84,1.74a1.77,1.77,0,0,1-1.82,1.66v.46a.37.37,0,0,1-.35.38h0a.37.37,0,0,1-.37-.38V582a3.54,3.54,0,0,1-1.74-.66.46.46,0,0,1-.23-.4.45.45,0,0,1,.45-.47h0a.43.43,0,0,1,.29.1,3.06,3.06,0,0,0,1.28.56v-1.67c-1.28-.32-1.81-.78-1.81-1.75a1.71,1.71,0,0,1,1.77-1.62v-.17A.38.38,0,0,1,530.58,575.6Zm-.34,2.89V577a.73.73,0,0,0-.82.72C529.42,578.08,529.59,578.27,530.24,578.49Zm.67,1.17v1.6a.74.74,0,0,0,.84-.74c0-.41-.2-.65-.84-.86Z" fill="#243e5b"/><rect x="447.4" y="517.91" width="73.7" height="47.4" transform="translate(-199.2 788.06) rotate(-68.03)" fill="#599b7a"/><rect x="447.4" y="517.91" width="73.7" height="47.4" transform="translate(-199.2 788.06) rotate(-68.03)" opacity="0.2"/><rect x="444.21" y="516.61" width="73.7" height="47.4" transform="translate(-199.99 784.29) rotate(-68.03)" fill="#599b7a"/><rect x="467.18" y="517.45" width="9.11" height="9.11" transform="translate(-188.85 764.19) rotate(-68.03)" fill="#dbdbdb"/><rect x="476.77" y="521.31" width="9.11" height="9.11" transform="translate(-186.42 775.5) rotate(-68.03)" fill="#dbdbdb"/><rect x="486.33" y="525.19" width="9.11" height="9.11" transform="translate(-184.04 786.8) rotate(-68.03)" fill="#243e5b"/><rect x="497.35" y="529.3" width="9.12" height="9.12" transform="translate(-179.67 802.87) rotate(-68.3)" fill="#243e5b"/><rect x="463.27" y="527.14" width="9.11" height="9.11" transform="translate(-200.29 766.63) rotate(-68.03)" fill="#a7a9ac"/><rect x="472.86" y="531.02" width="9.11" height="9.11" transform="translate(-197.87 777.95) rotate(-68.03)" fill="#a7a9ac"/><rect x="482.44" y="534.88" width="9.11" height="9.11" transform="translate(-195.46 789.25) rotate(-68.03)" fill="#a7a9ac"/><rect x="491.99" y="538.79" width="9.11" height="9.11" transform="translate(-193.11 800.55) rotate(-68.03)" fill="#dbdbdb"/><rect x="459.36" y="536.84" width="9.11" height="9.11" transform="translate(-211.73 769.07) rotate(-68.03)" fill="#a7a9ac"/><rect x="468.94" y="540.7" width="9.11" height="9.11" transform="translate(-209.31 780.37) rotate(-68.03)" fill="#a7a9ac"/><rect x="478.53" y="544.57" width="9.11" height="9.11" transform="translate(-206.9 791.69) rotate(-68.03)" fill="#a7a9ac"/><rect x="488.1" y="548.44" width="9.11" height="9.11" transform="translate(-204.49 802.98) rotate(-68.03)" fill="#dbdbdb"/><rect x="455.61" y="546.46" width="9.12" height="9.12" transform="translate(-221.93 774.9) rotate(-68.3)" fill="#a7a9ac"/><rect x="465.03" y="550.39" width="9.11" height="9.11" transform="translate(-220.75 782.81) rotate(-68.03)" fill="#a7a9ac"/><rect x="474.62" y="554.27" width="9.11" height="9.11" transform="translate(-218.33 794.13) rotate(-68.03)" fill="#a7a9ac"/><rect x="484.19" y="558.13" width="9.11" height="9.11" transform="translate(-215.93 805.42) rotate(-68.03)" fill="#dbdbdb"/><rect x="451.55" y="556.24" width="9.11" height="9.11" transform="translate(-234.6 773.97) rotate(-68.03)" fill="#a7a9ac"/><rect x="461.12" y="560.1" width="9.11" height="9.11" transform="translate(-232.2 785.26) rotate(-68.03)" fill="#a7a9ac"/><rect x="470.7" y="563.96" width="9.11" height="9.11" transform="translate(-229.78 796.56) rotate(-68.03)" fill="#dbdbdb"/><rect x="480.28" y="567.82" width="9.11" height="9.11" transform="translate(-227.36 807.86) rotate(-68.03)" fill="#dbdbdb"/><path d="M470.84,520.68h0a.65.65,0,0,1,.82-.39h0a.62.62,0,0,1,.34.8s0,0,0,0h0a.65.65,0,0,1-.82.39h0a.61.61,0,0,1-.34-.8S470.83,520.7,470.84,520.68Zm.85.34h0a.37.37,0,0,0-.13-.47c-.13,0-.32,0-.4.25h0a.35.35,0,0,0,.13.47C471.44,521.34,471.61,521.21,471.69,521Zm-1.11,1.46,2.5-1.55a.19.19,0,0,1,.15,0,.13.13,0,0,1,.08.18h0a.11.11,0,0,1,0,.08l-2.57,1.55a.11.11,0,0,1-.15,0,.16.16,0,0,1-.09-.19Zm1.29,0h0a.63.63,0,0,1,.81-.4h0a.66.66,0,0,1,.34.86h0a.62.62,0,0,1-.79.41h-.05a.64.64,0,0,1-.38-.81Zm.85.35h0a.38.38,0,0,0-.13-.47c-.13-.07-.32,0-.4.24h0a.33.33,0,0,0,.11.46h0c.11.13.28,0,.36-.18Z" fill="#599b7a"/><path d="M488.88,528.63a1.4,1.4,0,0,1,1.8-.74,1.44,1.44,0,0,1,.69.6.22.22,0,0,1-.07.3.22.22,0,0,1-.29-.06v0a.9.9,0,0,0-.49-.41,1,1,0,0,0-.73,0,.87.87,0,0,0-.5.51.9.9,0,0,0,0,.72,1,1,0,0,0,.54.51,1,1,0,0,0,.64,0,.23.23,0,0,1,.27.15.22.22,0,0,1-.14.26h0a1.35,1.35,0,0,1-.93,0,1.38,1.38,0,0,1-.79-1.78Z" fill="#599b7a"/><path d="M491.24,530.85l.84-2.07a.19.19,0,0,1,.24-.13h0l1.15.46a.22.22,0,0,1,.11.27.19.19,0,0,1-.24.13h0l-1-.39-.26.66.82.32a.21.21,0,0,1,.12.27.2.2,0,0,1-.26.13h0l-.82-.33-.26.64,1,.38a.24.24,0,0,1,.12.27.2.2,0,0,1-.25.13h0l-1.15-.45h0A.22.22,0,0,1,491.24,530.85Z" fill="#599b7a"/><path d="M499.49,532.92a1.4,1.4,0,0,1,1.8-.75,1.46,1.46,0,0,1,.71.61.23.23,0,0,1-.08.29.19.19,0,0,1-.28-.06h0a.92.92,0,0,0-.49-.42,1,1,0,0,0-.73,0,1,1,0,0,0-.52.52.91.91,0,0,0,.53,1.22.91.91,0,0,0,.65,0,.22.22,0,0,1,.26.16.2.2,0,0,1-.14.25,1.35,1.35,0,0,1-.93,0,1.37,1.37,0,0,1-.78-1.78Z" fill="#599b7a"/><path d="M469,531.08l-1.71,1.72a.2.2,0,0,1-.23,0H467a.21.21,0,0,1,0-.29h0l1.5-1.51-.9-.36a.2.2,0,0,1-.13-.26v0a.23.23,0,0,1,.27-.12l1.21.49H469v.35Z" fill="#fff"/><path d="M478,536.23a.91.91,0,0,1-1.18.5.9.9,0,0,1-.5-1.17h0A.92.92,0,0,1,477,535a.68.68,0,0,1,0-.4.64.64,0,0,1,.86-.24.58.58,0,0,1,.05,1A.89.89,0,0,1,478,536.23Zm-.38-.16a.49.49,0,1,0-.92-.36.51.51,0,0,0,.28.64A.5.5,0,0,0,477.66,536.07Zm-.23-1.29a.21.21,0,0,0,.09.28h0a.24.24,0,0,0,.29-.12.24.24,0,0,0-.12-.28.22.22,0,0,0-.28.12h0Z" fill="#fff"/><path d="M486.27,538.68a.92.92,0,0,1,1.19-.5.9.9,0,0,1,.54,1.11h0a.67.67,0,0,1,0,.2,2,2,0,0,1-.42.67,1.32,1.32,0,0,1-.7.43,1.18,1.18,0,0,1-.59,0,.2.2,0,0,1-.13-.26h0a.21.21,0,0,1,.27-.12h0a.81.81,0,0,0,.38,0,1,1,0,0,0,.32-.15l.07-.08a.73.73,0,0,1-.36,0,.92.92,0,0,1-.64-1.12A1.22,1.22,0,0,1,486.27,538.68Zm.38.16a.48.48,0,1,0,.66-.27.51.51,0,0,0-.66.27Z" fill="#fff"/><path d="M495.81,543.06a.21.21,0,0,1,.28-.13h0l1.1.44a.23.23,0,0,1,.1.31.24.24,0,0,1-.28.11l-1.09-.45a.21.21,0,0,1-.13-.26Z" fill="#599b7a"/><path d="M464.68,542.3a.19.19,0,0,1-.25.11h0l-.18.26a.21.21,0,0,1-.27.12h0a.21.21,0,0,1-.11-.27l.11-.27-1.1-.43h0a.17.17,0,0,1-.11-.09.2.2,0,0,1,0-.27l0,0,2-1.09H465l-.57,1.41h0a.31.31,0,0,1,.41.15.31.31,0,0,1-.14.41Zm-.2-1.29-1,.58.7.28Z" fill="#fff"/><path d="M474.12,545.13a.9.9,0,0,1,0,.72,1,1,0,0,1-.5.51.9.9,0,0,1-.72,0h0a.85.85,0,0,1-.5-.5.21.21,0,0,1,.15-.26.2.2,0,0,1,.24.09.51.51,0,0,0,.27.27.47.47,0,0,0,.4,0,.44.44,0,0,0,.27-.28.42.42,0,0,0,0-.38.52.52,0,0,0-.67-.27.22.22,0,0,1-.28-.12v-.06h0a.08.08,0,0,1,0-.07l.46-.86a.19.19,0,0,1,.16-.1h.13l1,.42a.22.22,0,0,1,.13.28h0a.24.24,0,0,1-.29.12l-.86-.35-.19.34a.57.57,0,0,1,.26,0A1,1,0,0,1,474.12,545.13Z" fill="#fff"/><path d="M483.78,549.77a.93.93,0,0,1-1.19.51.91.91,0,0,1-.54-1.11h0a.23.23,0,0,1,.06-.19,2.71,2.71,0,0,1,.42-.69,1.39,1.39,0,0,1,.7-.41,1.18,1.18,0,0,1,.59,0,.21.21,0,0,1,.14.24v0a.2.2,0,0,1-.26.13h0a.59.59,0,0,0-.37,0,1,1,0,0,0-.33.15l-.07.08a.73.73,0,0,1,.36,0,.92.92,0,0,1,.56,1.16A.37.37,0,0,1,483.78,549.77Zm-.38-.16a.51.51,0,1,0-.66.28.5.5,0,0,0,.66-.28Z" fill="#fff"/><path d="M492,552.82a.19.19,0,0,1-.11-.25.2.2,0,0,1,.25-.11l1.43.57a.21.21,0,0,1,.11.26.21.21,0,0,1-.26.11Zm1.29-.54h0a.24.24,0,0,1-.32.14h0a.25.25,0,0,1-.14-.33h0a.27.27,0,0,1,.34-.15.25.25,0,0,1,.15.34h0Zm-.59,1.47h0a.26.26,0,0,1-.34.13.27.27,0,0,1-.14-.34h0a.28.28,0,0,1,.35-.14.27.27,0,0,1,.17.34h0Z" fill="#599b7a"/><path d="M459.6,549.6l-.84,2.07a.19.19,0,0,1-.26.11h0a.19.19,0,0,1-.12-.24,0,0,0,0,1,0,0l.75-1.68h-.29a.23.23,0,0,1-.13-.17.21.21,0,0,1,.18-.23h0l.53-.09h.19Z" fill="#fff"/><path d="M470,556.25a.2.2,0,0,1-.26.12h0l-1.29-.5h0a.18.18,0,0,1-.11-.13.21.21,0,0,1,.11-.27l1.43-.51a.47.47,0,0,0,.28-.29.5.5,0,0,0-.28-.63.55.55,0,0,0-.36,0h-.14a.19.19,0,0,1-.26-.08v0a.21.21,0,0,1,.12-.27h.15a.94.94,0,0,1,.66,0,.86.86,0,0,1,.51.54.79.79,0,0,1,0,.64.86.86,0,0,1-.53.51l-.91.34.76.31A.21.21,0,0,1,470,556.25Z" fill="#fff"/><path d="M479.81,558.69a1,1,0,0,1,0,.72,1,1,0,0,1-.51.51.93.93,0,0,1-.73,0,.9.9,0,0,1-.5-.51.2.2,0,0,1,.08-.26h0a.21.21,0,0,1,.28.09h0a.53.53,0,0,0,.28.29.5.5,0,0,0,.38,0,.51.51,0,0,0,.29-.27.5.5,0,0,0-.29-.67.24.24,0,0,1-.11-.13h0a.21.21,0,0,1,.09-.28h0l.5-.21-.56-.24a.21.21,0,0,1-.13-.26v0a.22.22,0,0,1,.27-.12h0l1,.41a.22.22,0,0,1,.13.28v.09h-.06l-.62.28A1.25,1.25,0,0,1,479.81,558.69Z" fill="#fff"/><path d="M489.48,562.64l-.65.41.18.75a.2.2,0,0,1-.13.24h0a.15.15,0,0,1-.13,0,.17.17,0,0,1-.13-.13l-.15-.63-.56.34a.15.15,0,0,1-.16,0,.24.24,0,0,1-.11-.09.21.21,0,0,1,0-.26l.66-.41-.19-.75a.19.19,0,0,1,.14-.24.19.19,0,0,1,.24.13h0l.17.62.54-.34a.21.21,0,0,1,.28.08A.18.18,0,0,1,489.48,562.64Z" fill="#599b7a"/><path d="M456,561.52a.28.28,0,0,1,.16.37.28.28,0,1,1-.52-.21h0a.27.27,0,0,1,.35-.16Z" fill="#fff"/><path d="M464.7,564.18a1.63,1.63,0,0,1,.58-.74.85.85,0,0,1,.81-.13.88.88,0,0,1,.5.65,1.63,1.63,0,0,1-.1.93,1.58,1.58,0,0,1-.58.75.85.85,0,0,1-.81.13.88.88,0,0,1-.5-.65A1.6,1.6,0,0,1,464.7,564.18Zm1.39.56a1.2,1.2,0,0,0,.09-.7.38.38,0,0,0-.24-.35.55.55,0,0,0-.43.08,1.31,1.31,0,0,0-.41.57,1.36,1.36,0,0,0-.09.69.45.45,0,0,0,.25.35.46.46,0,0,0,.42-.09,1.18,1.18,0,0,0,.41-.55Z" fill="#fff"/><path d="M474.66,567.89a.24.24,0,0,1,.3-.12l1.08.44a.21.21,0,0,1,.12.26v0a.2.2,0,0,1-.26.13h0l-1.08-.43A.23.23,0,0,1,474.66,567.89Zm-.26.66a.22.22,0,0,1,.28-.14h0l1.08.43a.23.23,0,0,1-.18.43l-1.08-.44a.21.21,0,0,1-.12-.28Z" fill="#599b7a"/><path d="M484.63,572.43l-.5-.19a.2.2,0,0,1-.1-.27.2.2,0,0,1,.24-.13h0l.49.19.2-.48a.21.21,0,0,1,.27-.13h0a.21.21,0,0,1,.12.28l-.19.49.49.2a.21.21,0,0,1-.16.39l-.49-.2-.2.49a.22.22,0,0,1-.27.12h0a.21.21,0,0,1-.11-.28Z" fill="#599b7a"/><path d="M483,525.17a.18.18,0,0,1-.22.09l-.44-.18c-.4.44-1.4,1.59-1.66,1.92a.27.27,0,0,1-.12.09h-.12a.23.23,0,0,1-.12-.12s-.28-.65-.36-.87a.58.58,0,0,1,0-.4h.1a.22.22,0,0,1,.11.1.54.54,0,0,0,.09.22l.07.18.08.17.08.19c.25-.31,1.28-1.52,1.58-1.81h0a.17.17,0,0,1,.14,0l.58.23a.17.17,0,0,1,.2.15A.08.08,0,0,1,483,525.17Z" fill="#599b7a"/><rect x="486.79" y="494.16" width="9.6" height="40.1" transform="translate(-169.2 777.72) rotate(-68.03)" fill="#fff"/></g><g id="e1523eef-d110-4f6c-8f6c-5b81fbc51da2" data-name="freepik--Coin--inject-2"><path d="M421.9,560.4c-43,0-43.11,61.2,0,61.2S465,560.4,421.9,560.4Z" fill="#243e5b"/><path d="M421.9,560.4c-43,0-43.11,61.2,0,61.2S465,560.4,421.9,560.4Z" fill="#fff" opacity="0.1" style="isolation:isolate"/><path d="M421.9,557.56c-43,0-43.11,61.2,0,61.2S465,557.56,421.9,557.56Z" fill="#243e5b"/><path d="M421.9,557.56c-43,0-43.11,61.2,0,61.2S465,557.56,421.9,557.56Z" opacity="0.2"/><path d="M448.07,593.89c-2.3,10.53-11,19.66-26.18,19.66-35.77,0-35.71-50.79,0-50.79h.7c-33.61.61-33.45,48.71.65,48.71C437.16,611.49,445.46,603.44,448.07,593.89Z" opacity="0.1" style="isolation:isolate"/><path d="M422.16,569.45a1.09,1.09,0,0,1,1.11,1v1.7a16,16,0,0,1,8.29,3c.42.3.65.55.65,1a1.16,1.16,0,0,1-1.21,1.06,1.22,1.22,0,0,1-.84-.3,13.82,13.82,0,0,0-7-2.8V586c7.08,1.39,10.06,3.79,10.06,8,0,4.52-4.15,7.68-10,7.88v3.36a1.13,1.13,0,0,1-1.24,1,1.12,1.12,0,0,1-1-1v-3.37a18.35,18.35,0,0,1-10.48-4.13,1.09,1.09,0,0,1-.54-.88,1.17,1.17,0,0,1,1.17-1.07,1.21,1.21,0,0,1,.83.3,15.8,15.8,0,0,0,9.08,3.88V587.8c-7-1.4-9.87-3.75-9.87-8s4.1-7.58,9.77-7.68v-1.62a1.09,1.09,0,0,1,1.14-1Zm-1,16.19V574c-4.52.09-7.5,2.55-7.5,5.63C413.63,582.53,415.13,584.31,421.13,585.64Zm2,2.6V600c4.66-.09,7.68-2.56,7.68-5.8,0-2.91-1.62-4.72-7.68-6Z" fill="#fff"/></g></g><path d="M485.38,14.63c-66.66,0-66.78,94.81,0,94.81S552.15,14.63,485.38,14.63Z" fill="#ebebeb"/><path d="M525.92,70.92c-3.55,16.31-17.07,30.45-40.54,30.45-55.42,0-55.33-78.68,0-78.68h1.08c-52.07,1-51.81,75.46,1.08,75.46C509,98.15,521.88,85.71,525.92,70.92Z" fill="#dbdbdb"/><path d="M485.78,33.06a1.68,1.68,0,0,1,1.76,1.58h0v2.57a24.72,24.72,0,0,1,12.87,4.62c.65.46,1,.86,1,1.52A1.78,1.78,0,0,1,499.54,45a1.83,1.83,0,0,1-1.28-.45,21.62,21.62,0,0,0-10.82-4.29V58.73c10.88,2.19,15.54,6,15.54,12.41,0,7-6.43,11.94-15.44,12.21v5.14a1.74,1.74,0,0,1-3.46,0V83.27a28.4,28.4,0,0,1-16.23-6.44,1.72,1.72,0,0,1-.79-1.38,1.87,1.87,0,0,1,2.09-1.64,1.9,1.9,0,0,1,1,.45,24.25,24.25,0,0,0,14.07,6V61.51C473.39,59.34,468.9,55.7,468.9,49.1S475.24,37.35,484,37.16V34.58A1.7,1.7,0,0,1,485.78,33.06ZM484.2,58.14v-18c-7,.13-11.58,4-11.58,8.71C472.58,53.33,474.88,56.09,484.2,58.14Zm3.16,4V80.35c7.22-.14,11.9-4,11.9-9C499.26,66.85,496.74,64.08,487.36,62.13Z" fill="#dbdbdb"/><path d="M736.3,227.88c-60,10.78-44.17,99.7,16,88.92S796.4,217.1,736.3,227.88Z" fill="#dbdbdb"/><path d="M741.91,226.88c-57.2,10.29-41.35,99.18,16,88.9S799.22,216.6,741.91,226.88Z" fill="#ebebeb"/><path d="M786.17,273.43c-.31,15.84-9.53,31.18-29.67,34.8-47.6,8.53-60.71-65.28-13.24-73.8l.94-.14c-44.53,8.9-31.76,78.75,13.58,70.62C776.27,301.59,785.2,287.86,786.17,273.43Z" fill="#dbdbdb"/><path d="M753.34,244.12a1.52,1.52,0,0,1,1.29,1.67l-.31,2.45a20.43,20.43,0,0,1,10.6,5.67,1.74,1.74,0,0,1,.69,1.54,1.61,1.61,0,0,1-1.8,1.38,1.57,1.57,0,0,1-1.07-.58,18.06,18.06,0,0,0-8.89-5.15l-2,17.46c9.25,3.12,12.86,7.16,12.1,13.27-.77,6.62-6.88,10.65-14.72,10l-.56,4.88A1.54,1.54,0,0,1,747,298a1.51,1.51,0,0,1-1.28-1.68l.58-4.92a23.71,23.71,0,0,1-13.35-7.72,1.6,1.6,0,0,1,1.21-2.78,1.52,1.52,0,0,1,1.08.58,20.38,20.38,0,0,0,11.51,7.11l2.09-17.81c-9.12-3.16-12.59-7.05-11.86-13.29s6.81-10.47,14.45-9.76l.27-2.38A1.53,1.53,0,0,1,753.34,244.12Zm-4.17,23.52,2-17.09c-6.08-.59-10.5,2.57-11,7.05C739.65,261.89,741.33,264.7,749.17,267.64Zm2.3,4.13-2,17.24c6.27.6,10.74-2.58,11.31-7.28C761.25,277.42,759.37,274.53,751.47,271.77Z" fill="#dbdbdb"/><path d="M239.27,351.77c-37.48,11.58-75-38.94-112.43-27.35a304.32,304.32,0,0,1,19.72-33c30.51,5.15,61,37.07,91.52,28.68Z" fill="#ebebeb"/><path d="M201.88,331.69c-1.19,5.56-9,6.84-17.47,2.35S171,322.35,173.23,317.48s10.1-5.64,17.46-1.89S203.07,326.2,201.88,331.69Z" fill="#dbdbdb"/><path d="M164,312.53c-.61,1.11-2.84,1.29-5,.5s-3.32-2.25-2.65-3.41,2.91-1.5,5-.67S164.65,311.39,164,312.53Z" fill="#dbdbdb"/><path d="M149.33,292a315.84,315.84,0,0,0-19.1,31.53c-1.13.25-2.26.53-3.41.89a304.48,304.48,0,0,1,19.74-33C147.47,291.61,148.4,291.79,149.33,292Z" fill="#dbdbdb"/><path d="M239.2,349.78l.07,2c-37.48,11.58-75-38.94-112.45-27.35l1.29-2.38C165.11,311.93,202.15,361.15,239.2,349.78Z" fill="#dbdbdb"/><path d="M238.08,320.12l.07,2c-30.94,8.59-61.88-24.34-92.84-28.84l1.29-1.82C177.07,296.62,207.57,328.51,238.08,320.12Z" fill="#dbdbdb"/><path d="M138.84,320.66a41.29,41.29,0,0,0-7.44.62c.88-1.63,1.77-3.24,2.65-4.81C138.09,316.07,140.24,318.28,138.84,320.66Z" fill="#dbdbdb"/><path d="M145.47,297.72c.85-1.34,1.74-2.67,2.66-4,2.07.41,4.13.94,6.2,1.57C153,297.34,149,298.22,145.47,297.72Z" fill="#dbdbdb"/><path d="M190.09,317.93c.34.19.59.51.52.71s-.14.44-.22.65a18,18,0,0,1,4.57,3.56c.22.24.34.41.29.57s-.46.25-.84.06a1.22,1.22,0,0,1-.48-.36,16,16,0,0,0-3.86-3.13l-1.49,4.48c4.19,2.74,5.78,4.54,5.33,6.16s-3.49,1.69-7.25-.19c-.14.41-.28.84-.41,1.29-.08.2-.46.2-.86,0s-.67-.56-.59-.76l.44-1.29a22,22,0,0,1-6.13-5c-.17-.2-.26-.36-.19-.5s.5-.2.89,0a1.14,1.14,0,0,1,.48.39,18.66,18.66,0,0,0,5.24,4.41l1.57-4.52c-4.12-2.75-5.56-4.52-4.94-6.07s3.53-1.49,6.9.18c.07-.2.14-.41.22-.6S189.73,317.82,190.09,317.93Zm-2.69,5.74,1.5-4.33c-2.7-1.29-4.82-1.37-5.25-.25S183.87,321.28,187.4,323.67Zm.94,1.62-1.47,4.4c3,1.51,5.15,1.52,5.56.27S191.94,327.67,188.34,325.29Z" fill="#ebebeb"/><path d="M179.64,365.91c-29.77-13.39-59.56,24.19-89.34,10.8,2.31-7,4.63-14.43,6.94-22,24.24,4.92,48.47-18.66,72.71-15.8C173.18,347.41,176.41,356.34,179.64,365.91Z" fill="#ebebeb"/><path d="M145.67,355.27c.68,4.3-4.19,9.73-10.92,12.51s-12,1-11.84-3.68,5.06-10,10.91-12.44S145,350.92,145.67,355.27Z" fill="#dbdbdb"/><path d="M115.41,365.78c-.1,1.09-1.57,2.29-3.27,2.58s-3-.4-2.79-1.47,1.62-2.1,3.27-2.42S115.53,364.72,115.41,365.78Z" fill="#dbdbdb"/><path d="M159.18,351.09c.28,1-.87,2-2.57,2.37s-3.27-.09-3.5-1.07.92-2.16,2.57-2.57S158.9,350.09,159.18,351.09Z" fill="#dbdbdb"/><path d="M179.64,365.91q-1.35-.62-2.7-1.08c-3.07-9.2-6.13-17.87-9.19-26.15a20.38,20.38,0,0,1,2.2.18C173.18,347.41,176.41,356.34,179.64,365.91Z" fill="#dbdbdb"/><path d="M179,364.14c.21.59.4,1.19.61,1.8-29.77-13.39-59.56,24.19-89.34,10.79.15-.43.29-.88.43-1.28C120.17,388.12,149.6,351.55,179,364.14Z" fill="#dbdbdb"/><path d="M170,338.86q.31.81.6,1.62c-24.57-3.36-49.16,21-73.74,15.62.15-.48.29-1,.43-1.44C121.48,359.58,145.71,336,170,338.86Z" fill="#dbdbdb"/><path d="M175.08,359.33l1.29,3.77a34.32,34.32,0,0,0-5.92-1.36C169.82,359.83,171.89,358.44,175.08,359.33Z" fill="#dbdbdb"/><path d="M163.38,340.22a40.88,40.88,0,0,1,5,0c.42,1.16.85,2.32,1.29,3.5C166.79,343.42,164,342.06,163.38,340.22Z" fill="#dbdbdb"/><path d="M134.05,353.59c.29-.12.54-.07.54.11v.56a9.53,9.53,0,0,1,4-.62c.21,0,.34,0,.35.19s-.23.45-.54.57a.72.72,0,0,1-.41,0,8.32,8.32,0,0,0-3.39.45c.08,1.28.17,2.57.25,3.86,3.5-1,5-.77,5.14.56s-1.84,3.31-4.81,4.58l.08,1.09c0,.18-.24.43-.57.56s-.58.08-.59-.1v-1.11a11.17,11.17,0,0,1-5.36.77c-.17,0-.26-.07-.26-.19a1,1,0,0,1,.58-.59.87.87,0,0,1,.42-.07,9.14,9.14,0,0,0,4.63-.56c-.07-1.29-.15-2.64-.21-4-3.45.92-4.87.69-4.88-.72s1.89-3.27,4.55-4.4V354C133.55,354,133.77,353.7,134.05,353.59Zm-.18,5.48c-.07-1.29-.14-2.57-.2-3.86-2.14.9-3.53,2.28-3.5,3.29s.76,1.31,3.7.57Zm1.06.44.23,3.86c2.37-1,3.86-2.41,3.73-3.45s-.95-1.22-3.91-.41Z" fill="#ebebeb"/><path d="M144.51,497.21C110.27,483.05,76,513.93,41.79,499.86c3.53-7.72,7.07-15.93,10.61-24.53C80.26,480,108.12,461,136,466.94Q140.2,481.66,144.51,497.21Z" fill="#ebebeb"/><path d="M106.75,482c.31,5.08-5.71,10.49-13.45,12.44S79.88,493.32,80.59,488s6.7-10.79,13.43-12.48S106.41,476.81,106.75,482Z" fill="#dbdbdb"/><path d="M72,488.87c-.23,1.22-2,2.43-4,2.57s-3.29-.74-3-1.94,2.07-2.25,4-2.45S72.24,487.66,72,488.87Z" fill="#dbdbdb"/><path d="M122.32,479.37c.2,1.19-1.21,2.18-3.17,2.32s-3.67-.59-3.86-1.76,1.29-2.32,3.17-2.49S122.11,478.19,122.32,479.37Z" fill="#dbdbdb"/><path d="M54.92,475.77c-3.34,8.79-6.68,17.25-10,25.31-1-.35-2.07-.74-3.11-1.16,3.53-7.72,7.07-15.93,10.6-24.52A21.42,21.42,0,0,1,54.92,475.77Z" fill="#dbdbdb"/><path d="M144.51,497.21c-1-.44-2.08-.83-3.13-1.18q-3.94-15.12-7.93-29.59c.84.14,1.69.3,2.57.48Q140.2,481.65,144.51,497.21Z" fill="#dbdbdb"/><path d="M144,495.25c.18.64.36,1.29.53,2C110.26,483.05,76,513.93,41.79,499.86c.23-.49.45-1,.67-1.47C76.29,511.8,110.13,481.74,144,495.25Z" fill="#dbdbdb"/><path d="M136,466.94l.54,1.86C108.21,462.48,80,482.1,51.73,477c.22-.54.44-1.08.67-1.62C80.26,480,108.12,461,136,466.94Z" fill="#dbdbdb"/><path d="M52.32,501.14a50.87,50.87,0,0,1-6.79-1.64l1.4-3.41C50.59,497.13,53,499.12,52.32,501.14Z" fill="#dbdbdb"/><path d="M139.79,489.92c.37,1.39.73,2.8,1.1,4.2a51.18,51.18,0,0,0-6.8-1.69C133.59,490.27,136.13,488.87,139.79,489.92Z" fill="#dbdbdb"/><path d="M128.26,467.64a51.9,51.9,0,0,1,5.69.66c.37,1.28.74,2.68,1.1,4C131.81,471.69,128.77,469.79,128.26,467.64Z" fill="#dbdbdb"/><path d="M52.9,481l1.39-3.64a53.89,53.89,0,0,0,5.68.45C59.3,479.9,56.13,481.51,52.9,481Z" fill="#dbdbdb"/><path d="M94.05,477.79c.32-.08.59,0,.58.24s0,.43,0,.65a10,10,0,0,1,4.48,0c.23,0,.34.13.34.28s-.29.48-.65.57a.94.94,0,0,1-.47,0,8.47,8.47,0,0,0-3.78-.13c0,1.52-.09,3-.14,4.55,4-.46,5.66.08,5.67,1.65s-2.4,3.49-5.81,4.39v1.28c0,.21-.32.47-.68.56s-.66,0-.65-.23v-1.29a12.35,12.35,0,0,1-6-.1c-.18-.07-.28-.13-.27-.29a1,1,0,0,1,.71-.56.79.79,0,0,1,.48,0,10.07,10.07,0,0,0,5.14.2c0-1.54.12-3.1.18-4.64-3.86.42-5.45-.09-5.31-1.74s2.44-3.46,5.51-4.26v-.63C93.37,478.07,93.73,477.87,94.05,477.79Zm-.8,6.32c0-1.48.12-3,.18-4.44-2.46.63-4.14,2-4.22,3.15s.71,1.61,4,1.29Zm1.12.72-.15,4.48c2.72-.7,4.49-2.05,4.49-3.29s-1-1.56-4.34-1.24Z" fill="#ebebeb"/><g id="bfb2415c-5e3d-4c3d-a05a-92383b8581b6" data-name="freepik--Plant--inject-2"><path d="M256.31,459.42c-14.68,19.88-29.94,43-33.73,67.89,0,.38.57.51.66.13a148.88,148.88,0,0,1,6.43-20c9.65-2.66,19.13-4.83,24.2-14.42,5.15-9.84,4.52-22.68,3.53-33.45C257.39,459.06,256.6,459,256.31,459.42Z" fill="#243e5b"/><path d="M229.87,507.28c6.6-14.8,15.06-29.59,25.83-41.83,0-.09.18,0,.12.12-7,8.67-12.41,18.11-17.63,27.71,4.86-4.94,10.19-9.35,14.8-14.59.09-.1.23,0,.14.16-4.57,5.48-9.57,11.43-15.52,15.5q-2.42,4.42-4.85,8.86a12.94,12.94,0,0,1,1.29-.63c.07,0,.14.08,0,.11-.45.23-.9.47-1.38.68-.77,1.39-1.53,2.79-2.33,4.19C230.23,507.87,229.74,507.6,229.87,507.28Z" fill="#599b7a"/><path d="M234.78,502.12a85.41,85.41,0,0,0,11.27-7.58c.09-.07.23,0,.14.14a59.23,59.23,0,0,1-11.25,7.72.16.16,0,0,1-.16-.28Z" fill="#599b7a"/><path d="M220.89,523.61c0,.29.54.29.54,0,.07-8.21,0-16.47.12-24.72,2.11-4.24,6.63-6.59,9.77-10a43.48,43.48,0,0,0,5.85-8.15,58.6,58.6,0,0,0,6.8-22.65c.86-8.78-2.47-37.77-6.18-36.77-1.92.53-8.13,14.89-9.78,19.64a136.3,136.3,0,0,0-5.84,24C219.17,484.31,219.42,504.15,220.89,523.61Z" fill="#243e5b"/><path d="M220.83,488.17h0c.48-10.35,2.82-20.9,5-30.94,2.36-10.85,5.15-21.07,10.71-30.75a.16.16,0,0,1,.21-.06.17.17,0,0,1,.06.22h0a115.16,115.16,0,0,0-8.6,23.6,17.91,17.91,0,0,1,1.29-1.68c.15-.22.5,0,.36.21a16.25,16.25,0,0,1-1.75,2.47h-.08c-1.92,7.72-3.29,15.69-4.48,23.62l.26-.31a.07.07,0,0,1,.11,0,.07.07,0,0,1,0,.11c-.15.27-.32.53-.48.78-.59,4-1.14,8-1.69,12,7.15-6.11,13.26-13.32,16.72-22.21m.07,0c-3.37,9.21-8.7,17.4-16.9,23-.15,1.07-.29,2.14-.45,3.21,0,.23-.38.16-.38,0,0-.94,0-1.89.09-2.85a.21.21,0,0,1-.2-.23.22.22,0,0,1,.09-.17Z" fill="#599b7a"/><path d="M224.2,473.12C229.67,465,234.78,457,238.78,448c0-.1.22,0,.18.08-3.38,9-8.1,18-14.49,25.24C224.35,473.48,224.09,473.29,224.2,473.12Z" fill="#599b7a"/><path d="M231.51,446c2.28-4,4.66-7.91,6.8-12,.06-.12.21,0,.16.09a62,62,0,0,1-6.6,12.1C231.67,446.41,231.33,446.23,231.51,446Z" fill="#599b7a"/><path d="M230.59,447.81s-.06-.06,0-.06Z" fill="#263238"/><path d="M215.33,499.86A83.05,83.05,0,0,1,213.41,516c.09.59.17,1.17.26,1.78a77.45,77.45,0,0,0,2.89-18,.54.54,0,0,0,0-.55h0a120,120,0,0,0-1.81-24.45c-2.58-15.09-8.11-29.59-18.63-40.89a.76.76,0,0,0-1.06.08.86.86,0,0,0-.1.16c-4.25,10.8-2.77,23.68.85,34.46A63,63,0,0,0,204.16,485C207.8,490,212.39,494.31,215.33,499.86Z" fill="#243e5b"/><path d="M197.39,438.94c10,16.18,16.92,35.38,17.77,54.5,0,.33-.55.42-.6.07-.25-1.71-.51-3.42-.78-5.14h0c-4.11-3.95-8.36-8.12-11.31-13.06,0-.09.07-.19.15-.12a136.73,136.73,0,0,0,11,12c-.7-4.22-1.55-8.39-2.57-12.48l-.79-.93c-.18-.2.12-.5.3-.29l.23.25a146.61,146.61,0,0,0-5.22-16.48c-2.57-3-5.38-5.65-7.23-9.29a.09.09,0,0,1,.05-.1.11.11,0,0,1,.08,0c1.49,2.09,2.93,4.19,4.62,6.13.66.77,1.41,1.49,2.11,2.24a130.27,130.27,0,0,0-8.17-17,.24.24,0,1,1,.38-.28Z" fill="#599b7a"/><path d="M199.41,458.9c3.22,4.34,6.9,8.48,9.9,13,.09.13-.11.27-.21.17a66.32,66.32,0,0,1-9.91-13C199.1,458.89,199.35,458.77,199.41,458.9Z" fill="#599b7a"/><path d="M209.76,472.86l.14.14c.09.1,0,.25-.16.16l-.14-.14A.11.11,0,0,1,209.76,472.86Z" fill="#599b7a"/><path d="M181.76,470.1a49.81,49.81,0,0,0,10.52,24.7,26.28,26.28,0,0,0,8.55,6.65c3.66,1.79,7.52,3.89,11.38,5.39a73.67,73.67,0,0,1,4,14.34c.12-.43.25-.87.36-1.29-2.44-21.09-16.09-39.11-33.54-50.68a.85.85,0,0,0-1.18.21A.86.86,0,0,0,181.76,470.1Z" fill="#243e5b"/><path d="M187.77,476.29a.15.15,0,0,1,.18-.24,71.21,71.21,0,0,1,22.23,27.41c.13.28-.26.54-.42.26-.81-1.43-1.65-2.81-2.49-4.17h0c-4-.75-7.72-3.55-10.71-6.22-.08-.06,0-.18.12-.11a24.15,24.15,0,0,0,5,3.54c1.64.82,3.38,1.28,5.07,2q-2.22-3.51-4.62-6.76a46.58,46.58,0,0,1-12-6.73c-.12-.09,0-.27.11-.2A117.61,117.61,0,0,0,201.43,491a99.36,99.36,0,0,0-7.86-9.16c-1.35-.71-2.73-1.43-4-2.2a.12.12,0,0,1,0-.17.12.12,0,0,1,.11,0,14.9,14.9,0,0,1,3.1,1.53C191.15,479.39,189.53,477.82,187.77,476.29Z" fill="#599b7a"/><path d="M188.17,483.57a3.85,3.85,0,0,1,.67.47c.06,0,0,.15-.08.11a3.81,3.81,0,0,1-.71-.4A.11.11,0,1,1,188.17,483.57Z" fill="#599b7a"/><polygon points="243.86 566.84 196.03 566.84 199.89 523.29 200.74 513.67 239.16 513.67 239.99 523.29 243.86 566.84" fill="#599b7a"/><polygon points="239.99 523.29 199.89 523.29 200.74 513.67 239.16 513.67 239.99 523.29" opacity="0.2"/><rect x="198.45" y="506.96" width="42.99" height="9.51" fill="#599b7a"/></g></svg>