<svg id="bc2fe0cb-27e2-48d8-94bb-b8672876e725" data-name="Layer 1" xmlns="http://www.w3.org/2000/svg" width="865.76" height="682.89" viewBox="0 0 865.76 682.89"><path d="M114.57,653.68S14,572.5,25.85,487.26,134.29,473.05,158,395.93,94.4,218,173.5,147.66s152.05-3.4,201.34-17.6S420.2,6.25,532.58,4.22s205.57,67,163.91,264.86S783,489.28,800.74,560.32s-26,95.8-26,95.8Z" fill="#3b814e"/><path d="M114.57,653.68S14,572.5,25.85,487.26,134.29,473.05,158,395.93,94.4,218,173.5,147.66s152.05-3.4,201.34-17.6S420.2,6.25,532.58,4.22s205.57,67,163.91,264.86S783,489.28,800.74,560.32s-26,95.8-26,95.8Z" fill="#fff" opacity="0.7"/><path d="M421.31,253.9,552.18,120.65a9.91,9.91,0,0,1,14-.1l43.55,43.13L434.34,284Z" fill="#3b814e"/><path d="M421.31,253.9,552.18,120.65a9.91,9.91,0,0,1,14-.1l43.55,43.13L434.34,284Z" opacity="0.2"/><path d="M426.82,268.94l121.3-124.81s10,9,22.56-1l27.06,28.07L434.34,284Z" fill="#fff"/><line x1="550.13" y1="151.65" x2="428.83" y2="273.95" fill="none" stroke="#3b814e" stroke-miterlimit="10" stroke-dasharray="6"/><ellipse cx="514.54" cy="241.87" rx="32.08" ry="22.05" fill="#3b814e"/><ellipse cx="514.54" cy="241.87" rx="32.08" ry="22.05" opacity="0.2"/><path d="M145.22,318.87l17.36,151.9a11.3,11.3,0,0,0,12.51,9.94L465.87,447.5l248,2.75A4.12,4.12,0,0,0,718,445.7l-16.83-162a23.34,23.34,0,0,0-24.08-20.91L168,281.58A24.56,24.56,0,0,0,144.39,308Z" fill="#3b814e"/><path d="M145.22,318.87l17.36,151.9a11.3,11.3,0,0,0,12.51,9.94L465.87,447.5l248,2.75A4.12,4.12,0,0,0,718,445.7l-16.83-162a23.34,23.34,0,0,0-24.08-20.91L168,281.58A24.56,24.56,0,0,0,144.39,308Z" opacity="0.3"/><path d="M479.45,348.64l-4.51-32.08s.5-10.53,18.55-7.52c0,0,86.71,16.54,154.38,12,0,0,18.55-6,20,13l1.5,29.07S535.59,362.17,479.45,348.64Z" fill="#3b814e"/><path d="M479,325.58s108.77,22.55,186,13.53l-1-9s1.34-7.58-13.24-5.92a61.48,61.48,0,0,1-7.55.38c-20.58-.18-103.27-1.53-152.14-12C491,312.55,477,306.53,479,325.58Z" fill="#fff"/><path d="M482.46,349.64l-1-9s98.24,16.54,182,10.52l.5,12.53S544.61,361.67,482.46,349.64Z" fill="#fff"/><path d="M457.4,345.13s115.34,22.75,239.26,17.06l8.24,88.16-239-2.85Z" fill="#3b814e"/><path d="M457.4,345.13s115.34,22.75,239.26,17.06l8.24,88.16-239-2.85Z" fill="#fff" opacity="0.3"/><path d="M636.31,380.25c-81.34,0-168.43-16.8-169.5-17a.58.58,0,1,1,.22-1.14c1.31.25,131.79,25.41,222.37,14a.58.58,0,0,1,.65.5.59.59,0,0,1-.51.66A433,433,0,0,1,636.31,380.25Z" fill="#2f2e41"/><path d="M612.48,447.4c-77.32,0-139.37-14.79-140.18-15a.58.58,0,0,1-.43-.71.59.59,0,0,1,.7-.43c1.07.26,108.42,25.85,216.81,9.52a.59.59,0,0,1,.67.49.57.57,0,0,1-.49.66A519.37,519.37,0,0,1,612.48,447.4Z" fill="#2f2e41"/><path d="M148.63,292.37l51.59-7.06L676.53,273.2s14-1.87,13.05,30.76c0,0-132.36-3.73-241.42-18.65,0,0-193,22.37-302.94,33.56L144.39,308S143.44,299.23,148.63,292.37Z" fill="#3b814e"/><path d="M148.63,292.37l51.59-7.06L676.53,273.2s14-1.87,13.05,30.76c0,0-132.36-3.73-241.42-18.65,0,0-193,22.37-302.94,33.56L144.39,308S143.44,298.62,148.63,292.37Z" fill="#fff" opacity="0.3"/><path d="M152.26,380.06s69.22-12.54,115.33-14.55l-2-26.73s-4-11.36,12-13.37l160.4-18s14-4.68,16.7,11.36L465.87,447.5,180,480.46s-15.28,3.88-17.46-9.69Z" fill="#3b814e"/><path d="M152.26,380.06s69.22-12.54,115.33-14.55l-2-26.73s-4-11.36,12-13.37l160.4-18s14-4.68,16.7,11.36L465.87,447.5,180,480.46s-15.13,4-17.46-9.69Z" fill="#fff" opacity="0.4"/><path d="M166.68,399.6c7.49-1,15-1.87,22.51-2.72l22.55-2.46,22.57-2.22,11.29-1,11.3-.92-11.25,1.41L234.38,393l-22.54,2.45-22.57,2.23C181.75,398.34,174.22,399,166.68,399.6Z" fill="#fff"/><rect x="295.69" y="347.06" width="139.73" height="84.66" transform="translate(-44.34 46.98) rotate(-6.93)" fill="#fff"/><path d="M287.48,380.21,315,347.13l-19.49,1.3a10.46,10.46,0,0,0-9.73,11.28Z" fill="#3b814e"/><path d="M406.18,336.2l33.08,27.57-1.3-19.5a10.46,10.46,0,0,0-11.28-9.73Z" fill="#3b814e"/><path d="M444.58,399.69l-27.37,33.24,19.48-1.41a10.48,10.48,0,0,0,9.67-11.34Z" fill="#3b814e"/><path d="M311,373.57a.88.88,0,0,1-.09-1.75l105.26-11a.88.88,0,1,1,.19,1.74l-105.26,11Z" fill="#2f2e41"/><path d="M312,385.1a.88.88,0,0,1-.09-1.75l105.26-11a.9.9,0,0,1,1,.79.88.88,0,0,1-.78,1l-105.26,11Z" fill="#2f2e41"/><path d="M314,396.13a.88.88,0,0,1-.87-.79.88.88,0,0,1,.78-1l105.26-11a.9.9,0,0,1,1,.78.89.89,0,0,1-.79,1l-105.26,11Z" fill="#2f2e41"/><path d="M315,407.66a.88.88,0,0,1-.87-.79.88.88,0,0,1,.78-1l105.26-11a.88.88,0,1,1,.19,1.75l-105.26,11Z" fill="#2f2e41"/><path d="M316.55,419.69a.89.89,0,0,1-.88-.79.88.88,0,0,1,.79-1l105.26-11a.88.88,0,0,1,.18,1.75l-105.26,11Z" fill="#2f2e41"/><path d="M192.74,314.05l-26.51-64.9a7,7,0,0,1,3.76-9.08l203.37-85.78a5.58,5.58,0,0,1,7.32,3L435,286.53Z" fill="#3b814e"/><path d="M192.74,314.05l-26.51-64.9a7,7,0,0,1,3.76-9.08l203.37-85.78a5.58,5.58,0,0,1,7.32,3L435,286.53Z" fill="#fff" opacity="0.7"/><polygon points="171.43 263.16 386.91 171.93 395.91 192.34 180.43 283.57 171.43 263.16" fill="#3b814e"/><rect x="204.59" y="277.88" width="83.33" height="13.78" rx="2.37" transform="translate(-90.75 116.96) rotate(-22.68)" fill="#3b814e"/><path d="M219.81,311.23a.6.6,0,0,1-.54-.36.59.59,0,0,1,.31-.77l92.82-40.44a.58.58,0,0,1,.47,1.07L220,311.18A.59.59,0,0,1,219.81,311.23Z" fill="#3b814e"/><path d="M246.38,307.76a.59.59,0,0,1-.22-1.13l56.23-23.49a.58.58,0,0,1,.77.31.6.6,0,0,1-.32.77l-56.23,23.49A.59.59,0,0,1,246.38,307.76Z" fill="#3b814e"/><path d="M272.19,304.29a.58.58,0,0,1-.22-1.12l23.11-9.63a.57.57,0,0,1,.76.31.59.59,0,0,1-.31.77l-23.11,9.63A.62.62,0,0,1,272.19,304.29Z" fill="#3b814e"/><rect x="364.34" y="238.37" width="39.42" height="38.92" rx="2.59" transform="translate(-69.68 167.81) rotate(-22.65)" fill="#3b814e"/><rect x="362.83" y="244.76" width="15.97" height="15.77" rx="2.59" transform="translate(-68.7 162.32) rotate(-22.65)" fill="#fff" opacity="0.4"/><rect x="380.47" y="237.49" width="15.97" height="15.77" rx="2.59" transform="translate(-64.54 168.55) rotate(-22.65)" fill="#fff" opacity="0.4"/><rect x="387.74" y="254.88" width="15.97" height="15.77" rx="2.59" transform="translate(-70.68 172.69) rotate(-22.65)" fill="#fff" opacity="0.4"/><rect x="370.88" y="261.62" width="15.97" height="15.77" rx="2.59" transform="translate(-74.58 166.72) rotate(-22.65)" fill="#fff" opacity="0.4"/><polygon points="247.61 206.76 265.78 199.38 262.94 306.14 245.87 308.37 247.61 206.76" fill="#fff" opacity="0.2"/><polygon points="326.68 173.54 345.57 165.98 341.11 297.56 323.58 299.28 326.68 173.54" fill="#fff" opacity="0.2"/><path d="M719.9,492.71c0,174.49-117.26,162.48-117.26,162.48-57.38,1.33-89.56-15.13-107.53-32.89A73.33,73.33,0,0,1,479,598.36,76.7,76.7,0,0,1,473.62,560c5.41-46.5,32-52.22,51.75-49.7,39.49,5.05,76.44-21.15,85.69-59.87a176.11,176.11,0,0,0,4.29-26.21c-1.41-57.22,37.44-69.93,37.44-69.93a32.84,32.84,0,0,1,20.48,3.8C715.05,381,719.9,492.71,719.9,492.71Z" fill="#a7a9ac"/><polygon points="345.13 480.33 387.42 480.33 385.12 513.89 349.27 513.89 345.13 480.33" fill="#f9b499"/><path d="M376.84,480.33s-6.89,16.55-.91,33.1l9.19.46,2.3-33.56Z" fill="#f7a48b"/><path d="M421,592l14.25-25.74,29.88,15.63-10.58,17S442.11,605.81,421,592Z" fill="#f9b499"/><path d="M428.32,578.7l6.9-12.42,29.88,15.63L460,590.19S444.87,590.65,428.32,578.7Z" fill="#f7a48b"/><path d="M462.63,623.28a6.93,6.93,0,0,1-5.81,4.6l-16.54,2.29s-19.73,2.72-30.09,6.7A35.9,35.9,0,0,1,396,639.35c-6.29-.2-15.16-1.61-26.7-6a11,11,0,0,1-6.14-6,10.06,10.06,0,0,1-.53-6.29c.84-3.54,3.57-7,10.51-8.34,0,0,19.3,1.38,28.49-9.19,0,0,11-18.39,19.31-11.5,0,0,15.17,12.41,33.55,6.9,0,0,4.14-6.43,7.36,2.76C461.88,601.68,465.78,615.73,462.63,623.28Z" fill="#3b814e"/><path d="M687.41,516.72c-19.08,2.83-38.85,38.86-38.85,38.86C609.7,634.7,525.65,581,525.65,581c-24.86-22.26-40.23,2.51-46.66,17.34A76.7,76.7,0,0,1,473.62,560c5.41-46.5,32-52.22,51.75-49.7,39.49,5.05,76.44-21.15,85.69-59.87a176.11,176.11,0,0,0,4.29-26.21c-1.41-57.22,37.44-69.93,37.44-69.93a32.84,32.84,0,0,1,20.48,3.8v.09c8,11.37-5.64,30-5.64,30-19.07,26.84,4.24,31.07,4.24,31.07-7.07,24.73,7.06,34.62,7.06,34.62C671.87,499.78,687.41,516.72,687.41,516.72Z" fill="#808285"/><path d="M521.05,553.14s37.6,56.14,91.73,19.55l-20.55-16Z" fill="#2f2e41"/><path d="M521.05,553.14s37.6,56.14,91.73,19.55l-20.55-16Z" fill="#231f20" opacity="0.2"/><path d="M563.87,505.19l-6.56-4.68,3.34-3.34,21.43,4.43s-4.05,7.93-11.4-.75Z" fill="#3b814e"/><path d="M563.87,505.19l-6.56-4.68,3.34-3.34,21.43,4.43s-4.05,7.93-11.4-.75Z" fill="#231f20" opacity="0.2"/><path d="M608.44,433.68s-5-4.68-4.35-13.7c0,0,18-2.67,21.06-5l2.67,4-8,18.35L606.1,453.4l-4.68-2.68Z" fill="#3b814e"/><path d="M608.44,433.68s-5-4.68-4.35-13.7c0,0,18-2.67,21.06-5l2.67,4-8,18.35L606.1,453.4l-4.68-2.68Z" fill="#231f20" opacity="0.2"/><path d="M563.87,505.19l6.81-4.34s6,8.35,11,1l35.08-69.17s-1.7,3.61,3,4.65A54.61,54.61,0,0,0,635,433l.14,1.59,3,21.13s-21,46.12-55.47,63.16C582.71,518.89,572.41,511.36,563.87,505.19Z" fill="#e6e7e8"/><path d="M624.9,406.62l.34,11.94s-15,17.06-5.46,18.77c0,0,24.91-2.39,33.1-20.47a130.27,130.27,0,0,0-6.14-19.11S637.87,410.71,624.9,406.62Z" fill="#f9b499"/><path d="M624.9,406.62l.25,8.35s21.12-1.36,21.59-17.22l-24.6-5.17Z" fill="#f7a48b"/><path d="M425.32,564.17s28.57,20.55,51.12,21.05c0,0,18.55-41.1,26.57-49.12,0,0,46.62,55.64,89.72,27.57l-16-37.59,6-7.19s-39.6-31.41-89.72-56.47c0,0-12-6-23.56,13Z" fill="#2f2e41"/><path d="M386.22,474.45l83.21,1-21.06,43.11-64.66,1S378.7,503,386.22,474.45Z" fill="#2f2e41"/><path d="M386.22,474.45l83.21,1-21.06,43.11-64.66,1S378.7,503,386.22,474.45Z" fill="#231f20" opacity="0.2"/><path d="M444.87,569.68c8.69-14.47,17.7-28.76,27.22-42.71,4.77-7,9.64-13.87,14.92-20.47a81.5,81.5,0,0,1,8.52-9.4,20.38,20.38,0,0,1,2.53-2,4.45,4.45,0,0,1,3.14-.91,2.34,2.34,0,0,1,1.32,1.07l1,1.26,1.93,2.5q7.79,10,16.3,19.35a237.63,237.63,0,0,0,17.92,17.85A113.05,113.05,0,0,0,560,551.1a45.48,45.48,0,0,0,11.72,4.61,21.56,21.56,0,0,0,12.45-.56,21.67,21.67,0,0,1-12.48.68,45.27,45.27,0,0,1-11.81-4.52,113.08,113.08,0,0,1-20.51-14.81,238.43,238.43,0,0,1-18-17.82q-8.55-9.34-16.38-19.33l-1.93-2.51-1-1.27a1.9,1.9,0,0,0-1.05-.89,4.09,4.09,0,0,0-2.77.85,18.83,18.83,0,0,0-2.48,1.91,82.67,82.67,0,0,0-8.5,9.32c-5.28,6.57-10.18,13.45-15,20.4s-9.42,14-14,21.1S449.28,562.49,444.87,569.68Z" fill="#f1f2f2"/><path d="M439.85,550.64c2.65,1.49,5.33,2.92,8,4.34s5.38,2.8,8.13,4.09,5.49,2.59,8.31,3.71c.7.3,1.41.58,2.12.83s1.41.55,2.14.77,1.44.49,2.16.71l2.21.58a48.83,48.83,0,0,1-8.77-2.53c-2.86-1-5.63-2.32-8.38-3.62s-5.45-2.72-8.1-4.21S442.41,552.28,439.85,550.64Z" fill="#f1f2f2"/><path d="M435.34,558.66c1.33.89,2.7,1.73,4.08,2.53s2.77,1.61,4.18,2.38c2.81,1.52,5.68,2.94,8.61,4.22a89.63,89.63,0,0,0,8.94,3.45l2.29.73c.76.23,1.54.41,2.31.63,1.54.47,3.12.73,4.68,1.09a61.88,61.88,0,0,1-9.4-2.08,80,80,0,0,1-9-3.36c-2.93-1.32-5.81-2.75-8.6-4.35A82.51,82.51,0,0,1,435.34,558.66Z" fill="#f1f2f2"/><path d="M388.23,496q8.76-.5,17.55-.77c5.86-.18,11.72-.28,17.58-.33s11.72,0,17.58.25,11.74.51,17.46,1.85a42.39,42.39,0,0,0-4.33-.69l-2.19-.24c-.72-.06-1.46-.09-2.19-.14-2.91-.23-5.84-.31-8.77-.4-5.85-.16-11.7-.17-17.56-.13s-11.71.12-17.57.22Z" fill="#f1f2f2"/><path d="M393.74,514.55a80.59,80.59,0,0,1-1.23-9c-.25-3-.32-6.07-.3-9.1a81,81,0,0,1,.67-9.08,61.16,61.16,0,0,1,1.86-8.9c-.28,1.49-.66,3-.85,4.46-.12.74-.26,1.49-.36,2.23l-.27,2.26c-.31,3-.54,6-.55,9s0,6,.18,9.06c.09,1.51.2,3,.34,4.52S393.52,513.05,393.74,514.55Z" fill="#f1f2f2"/><path d="M402.26,516.05a62.64,62.64,0,0,1-1.12-9.06,79.8,79.8,0,0,1,0-9.15,69.23,69.23,0,0,1,1.17-9.07,59.53,59.53,0,0,1,2.43-8.81c-.38,1.48-.86,2.92-1.15,4.42l-.5,2.22-.4,2.24c-.29,1.49-.45,3-.67,4.5s-.31,3-.38,4.53a89.14,89.14,0,0,0-.15,9.1A83.76,83.76,0,0,0,402.26,516.05Z" fill="#f1f2f2"/><path d="M462.79,623.28c-2.29,16.08-25.73,12.87-25.73,12.87-14.71,0-23.45,5.05-23.45,5.05-20.22,11-48.72-4.6-48.72-4.6-3.93-1.5-2.88-6.22-1.7-9.26a11,11,0,0,0,6.14,6c11.54,4.43,20.41,5.84,26.7,6a35.9,35.9,0,0,0,14.16-2.48c10.36-4,30.09-6.7,30.09-6.7l16.54-2.29a6.93,6.93,0,0,0,5.81-4.6Z" fill="#2f2e41"/><path d="M613.12,628.83s75.52-16.71,85.54-106.93c0,0,8-40.77-11.36-105.6" fill="none" stroke="#808285" stroke-miterlimit="10"/><path d="M168.68,418.31c7.35-1.65,14.75-3.05,22.16-4.34s14.87-2.41,22.33-3.41,15-1.77,22.49-2.23a152,152,0,0,1,22.58-.05l-5.64-.07-5.64.16c-1.88.05-3.75.21-5.63.3s-3.75.26-5.62.43c-3.74.31-7.48.69-11.22,1.07s-7.47.86-11.19,1.38c-7.46.92-14.9,2-22.34,3.17q-5.57.84-11.14,1.76Z" fill="#fff"/><path d="M170,435.69c7.38-1.4,14.8-2.62,22.23-3.76s14.88-2.14,22.34-3.1,14.94-1.69,22.44-2.26,15.05-1,22.54-.24a105.54,105.54,0,0,0-11.25.15c-3.75.19-7.49.52-11.22.85q-11.22,1.1-22.39,2.49c-7.46.88-14.9,1.89-22.35,2.87Z" fill="#fff"/><path d="M327.21,441.79,292.57,416.2,295,435.58a10.46,10.46,0,0,0,11.82,9.06Z" fill="#3b814e"/><path d="M480.87,242l-38.23,23.92a5.71,5.71,0,0,0-1.79,7.89l7.31,11.49c58.43,8.86,190.69,16.21,190.69,16.21l88.24-55.76a3.53,3.53,0,0,0,1.1-4.87l-67.41-107.3a3.54,3.54,0,0,0-4.88-1.11L519.55,218.31Z" fill="#3b814e"/><path d="M467.92,265.93,641.85,157.16s8,9.52,20,4.51l42.61,65.16s-11,10-5,21.06l-81.2,52.63s-81.71-4.51-154.89-13C463.41,287.48,475.44,280.47,467.92,265.93Z" fill="#fff"/><line x1="474.94" y1="268.44" x2="477.48" y2="266.84" fill="none" stroke="#3b814e" stroke-miterlimit="10"/><line x1="482.68" y1="263.56" x2="636.21" y2="166.91" fill="none" stroke="#3b814e" stroke-miterlimit="10" stroke-dasharray="6.15 6.15"/><line x1="638.81" y1="165.28" x2="641.35" y2="163.68" fill="none" stroke="#3b814e" stroke-miterlimit="10"/><line x1="607.77" y1="299.01" x2="610.32" y2="297.43" fill="none" stroke="#3b814e" stroke-miterlimit="10"/><line x1="615.69" y1="294.1" x2="688.25" y2="249.13" fill="none" stroke="#3b814e" stroke-miterlimit="10" stroke-dasharray="6.32 6.32"/><line x1="690.93" y1="247.46" x2="693.48" y2="245.88" fill="none" stroke="#3b814e" stroke-miterlimit="10"/><ellipse cx="583.96" cy="256.91" rx="35.84" ry="36.59" fill="#3b814e"/><path d="M653,383.35c-3,15.41-14.7,26.1-26.18,23.87s-18.35-16.5-15.37-31.9c.13-.69.28-1.37.46-2a35,35,0,0,1,1.25-4,35.83,35.83,0,0,1,1.77-4h0a33.94,33.94,0,0,1,2.24-3.72c.07-.09.15-.19.2-.27,5.21-7.24,12.78-11.27,20.24-9.82C649.07,353.66,656,368,653,383.35Z" fill="#f9b499"/><path d="M663.19,386.66s-8.92,13.82-15.15,8.92c0,0,4.46-5.35,5.79-19.16a43.94,43.94,0,0,0-4.83-2.6,51.21,51.21,0,0,0-15.22-4.54s-10.35-.49-15.25-9.4a24.45,24.45,0,0,0-5.24,9.4,11.25,11.25,0,0,1-1.58-.41c-3.27-1.05-10.9-4.55-15.34-15.16.33.15,7.26,3.49,12.91,1.32,0,0-8.91-6.68-8.91-15.15,0,0,7.13,4.46,12,4,0,0-2.67-5.79-2.67-10.24,0,0,11.13,11.13,25.39,5.79,0,0,16.44-6,24.59,13.91a23,23,0,0,1,1.22,4.55c.16.9.85,2.28,3.15,3.82C664.08,361.72,674.77,372.85,663.19,386.66Z" fill="#2f2e41"/><path d="M618.19,348.79a21.75,21.75,0,0,0-1,2.9,13.9,13.9,0,0,0-.53,3,9,9,0,0,0,.26,2.94,6.59,6.59,0,0,0,1.45,2.49l-.48.49a6.44,6.44,0,0,1-1.64-2.79,8.82,8.82,0,0,1-.17-3.19A15,15,0,0,1,618.19,348.79Z" fill="#231f20" opacity="0.2"/><ellipse cx="652.72" cy="379.09" rx="5.12" ry="6.68" fill="#f9b499"/><path d="M649.12,374.08a36.38,36.38,0,0,0-14.79-3.14c-11.65.62-15.79-8.26-15.79-8.26-2.5,1.12-6.64,10.64-6.64,10.64s0,0,0,0a35,35,0,0,1,1.25-4l.15,0a25.71,25.71,0,0,1,1.62-4h0a24.75,24.75,0,0,1,2.24-3.72c.07-.09.15-.19.2-.27a17.22,17.22,0,0,1,1.17-1.39c4.9,8.91,15.25,9.4,15.25,9.4A51.21,51.21,0,0,1,649,373.82Z" fill="#f7a48b"/><path d="M344,532.17a7,7,0,0,1-6.81-2.93l-9.88-13.46s-11.76-16.07-20.2-23.29a36.15,36.15,0,0,1-8.91-11.27c-2.81-5.63-5.79-14.11-7.37-26.37a11,11,0,0,1,2.33-8.23,10.11,10.11,0,0,1,5.28-3.47c3.52-.94,7.86-.17,12.34,5.29,0,0,7.95,17.63,21.63,20.69,0,0,21.42,1,19.29,11.53,0,0-3.71,19.24,9.88,32.8,0,0,7.63.58,1.07,7.78C362.63,521.24,352.12,531.35,344,532.17Z" fill="#3b814e"/><path d="M344,532.17a7,7,0,0,1-6.81-2.93l-9.88-13.46s-11.76-16.07-20.2-23.29a36.15,36.15,0,0,1-8.91-11.27c-2.81-5.63-5.79-14.11-7.37-26.37a11,11,0,0,1,2.33-8.23,10.11,10.11,0,0,1,5.28-3.47c3.52-.94,7.86-.17,12.34,5.29,0,0,7.95,17.63,21.63,20.69,0,0,21.42,1,19.29,11.53,0,0-3.71,19.24,9.88,32.8,0,0,7.63.58,1.07,7.78C362.63,521.24,352.12,531.35,344,532.17Z" fill="#231f20" opacity="0.2"/><path d="M344.06,532.31c-15.24,5.63-23.55-16.52-23.55-16.52-7-12.94-15.59-18.23-15.59-18.23C285.59,485,285.8,452.51,285.8,452.51c-.54-4.17,4.1-5.49,7.34-5.89a11,11,0,0,0-2.33,8.23c1.58,12.26,4.56,20.74,7.37,26.37a36.15,36.15,0,0,0,8.91,11.27c8.44,7.22,20.2,23.29,20.2,23.29l9.88,13.46a7,7,0,0,0,6.81,2.93Z" fill="#2f2e41"/><path d="M344.06,532.31c-15.24,5.63-23.55-16.52-23.55-16.52-7-12.94-15.59-18.23-15.59-18.23C285.59,485,285.8,452.51,285.8,452.51c-.54-4.17,4.1-5.49,7.34-5.89a11,11,0,0,0-2.33,8.23c1.58,12.26,4.56,20.74,7.37,26.37a36.15,36.15,0,0,0,8.91,11.27c8.44,7.22,20.2,23.29,20.2,23.29l9.88,13.46a7,7,0,0,0,6.81,2.93Z" fill="#231f20" opacity="0.2"/><path d="M501.74,474.85s-1.75-37.14,14-54.58C515.73,420.27,523.94,459.19,501.74,474.85Z" fill="#3b814e"/><path d="M501.74,474.85s-1.75-37.14,14-54.58C515.73,420.27,523.94,459.19,501.74,474.85Z" fill="#231f20" opacity="0.2"/><path d="M509.1,466.75s-11.05-9.47-22.36-3.42c0,0-22.62,11.84-34.46-3.94,0,0-7.11-12.1-.79-10.79,0,0,8.42,3.42,13.68-.26,0,0-15.52,1.84-15-6.84,0,0,.53-3.95,10.79-.79,0,0,35.25-1.84,28.41-11.31,0,0-10.52-9.74-2.37-8.16,0,0,6.32-1.05,12.9,5.26,0,0,5,6.05,16.57,7.63C516.47,434.13,518.05,453.6,509.1,466.75Z" fill="#f9b499"/><path d="M512.26,433.08s-1.31,22.1-8.42,30.52a18.35,18.35,0,0,1,5.26,3.15s7.63-7.62,7.37-32.62Z" fill="#f7a48b"/><path d="M633.43,418.9l1.71,15.7s-24.23,22.51-52.54,12.28l-66.87-26.61s6.48,39.91-14,54.58c0,0,71,35.48,105.08,25.93,0,0-13.31,15.7-37.53,23.54,0,0,9.55,51.86,58.68,49.13,0,0,50.47-46.87,44.46-112.54,0,0-2.37-25.08-14.77-43.06a5.2,5.2,0,0,1-.91-3.11,13.94,13.94,0,0,0-3.2-8.8S649.4,413.48,633.43,418.9Z" fill="#3b814e"/><path d="M580.37,527.58a69.9,69.9,0,0,0,3.24,7.36q1.8,3.6,3.95,7a66,66,0,0,0,10,12.47,44.27,44.27,0,0,0,13.23,8.88,39,39,0,0,0,15.65,3.05,40.88,40.88,0,0,1-8-.48,35.56,35.56,0,0,1-7.75-2.22,43.38,43.38,0,0,1-13.43-8.87,64,64,0,0,1-10-12.63A72.53,72.53,0,0,1,580.37,527.58Z" fill="#f1f2f2"/><path d="M590.73,561.83s56.14,15.87,66.16-72.34c0,0-19.71,9.35-34.42,9,0,0,55.81-6,42.11-68.17,0,0,19,33.41-.34,87.21,0,0-9.38,29.59-36.27,55.9C628,573.45,609.11,576.7,590.73,561.83Z" fill="#231f20" opacity="0.2"/><path d="M144.39,308l303.44-32.92s164.29,23.13,241.65,16.75l.1,12.12S547.83,300,448.16,285.31c0,0-275.75,31.32-302.94,33.56Z" opacity="0.3"/><polyline points="199.17 653.18 191.81 606.94 248.26 607.63 242.7 652.58" fill="#2f2e41"/><path d="M223.54,598.5a9.58,9.58,0,0,0,9.4.78,10.15,10.15,0,0,0,5.13-8.09,11.53,11.53,0,0,0-9.41-.47,11.32,11.32,0,0,0-6.21,6.95" fill="#3b814e"/><path d="M249.34,608.45a9.6,9.6,0,0,0,9.4.79,10.12,10.12,0,0,0,5.13-8.1,11.53,11.53,0,0,0-9.41-.47,11.4,11.4,0,0,0-6.23,7" fill="#3b814e"/><path d="M234.86,586.21a9.61,9.61,0,0,0,7.38,5.82,10.14,10.14,0,0,0,8.74-3.95,10.84,10.84,0,0,0-14.68-4.43,10.64,10.64,0,0,0-1.89,1.28" fill="#3b814e"/><path d="M244.27,597.73a9.65,9.65,0,0,0-8.42,4.18,10.11,10.11,0,0,0-.19,9.58,10.8,10.8,0,0,0,10-13.6" fill="#3b814e"/><path d="M253.37,615.94a9.6,9.6,0,0,0,.22,9.4,10.1,10.1,0,0,0,8.61,4.22,11.49,11.49,0,0,0-.54-9.34c-1.48-2.71-4.15-4-7.5-4.8" fill="#3b814e"/><path d="M268.37,618.08a6.42,6.42,0,0,0-2.24-1.42,9.33,9.33,0,0,0-3.05-.54,36.18,36.18,0,0,0-4.17.24,12.2,12.2,0,0,1-5.13-.44,7.81,7.81,0,0,1-4.23-4.09,23.12,23.12,0,0,1-1.82-6.25,18.21,18.21,0,0,0-2.18-6.4,22.71,22.71,0,0,0-4.78-4.86,23.26,23.26,0,0,1-4.56-4.63,15.34,15.34,0,0,1-2.28-10.58,14.77,14.77,0,0,1,2.77-6.82,12,12,0,0,1,1.35-1.5,4.06,4.06,0,0,1,.55-.46,3.38,3.38,0,0,1-.45.55,13.45,13.45,0,0,0-1.25,1.55,15.46,15.46,0,0,0-.23,17,22.74,22.74,0,0,0,4.49,4.49,22.74,22.74,0,0,1,4.9,5,18.28,18.28,0,0,1,2.26,6.61,22.56,22.56,0,0,0,1.75,6.12,7.33,7.33,0,0,0,3.9,3.86,11.9,11.9,0,0,0,4.92.49,34.86,34.86,0,0,1,4.21-.16,9.38,9.38,0,0,1,3.14.66,5.11,5.11,0,0,1,1.69,1.09,4.48,4.48,0,0,1,.36.4S268.38,618.07,268.37,618.08Z" fill="#3b814e"/><path d="M268.37,618.08a6.42,6.42,0,0,0-2.24-1.42,9.33,9.33,0,0,0-3.05-.54,36.18,36.18,0,0,0-4.17.24,12.2,12.2,0,0,1-5.13-.44,7.81,7.81,0,0,1-4.23-4.09,23.12,23.12,0,0,1-1.82-6.25,18.21,18.21,0,0,0-2.18-6.4,22.71,22.71,0,0,0-4.78-4.86,23.26,23.26,0,0,1-4.56-4.63,15.34,15.34,0,0,1-2.28-10.58,14.77,14.77,0,0,1,2.77-6.82,12,12,0,0,1,1.35-1.5,4.06,4.06,0,0,1,.55-.46,3.38,3.38,0,0,1-.45.55,13.45,13.45,0,0,0-1.25,1.55,15.46,15.46,0,0,0-.23,17,22.74,22.74,0,0,0,4.49,4.49,22.74,22.74,0,0,1,4.9,5,18.28,18.28,0,0,1,2.26,6.61,22.56,22.56,0,0,0,1.75,6.12,7.33,7.33,0,0,0,3.9,3.86,11.9,11.9,0,0,0,4.92.49,34.86,34.86,0,0,1,4.21-.16,9.38,9.38,0,0,1,3.14.66,5.11,5.11,0,0,1,1.69,1.09,4.48,4.48,0,0,1,.36.4S268.38,618.07,268.37,618.08Z" fill="#3b814e"/><path d="M160.61,622.82a14.3,14.3,0,0,0-13.51-15,14.45,14.45,0,0,0-5.82.91,23.81,23.81,0,0,0,18.81,13.89" fill="#3b814e"/><path d="M156.88,624.78c-2.76,3-2.58,7.91-.61,11.51s5.37,6.14,8.78,8.42a18.54,18.54,0,0,0-8-21" fill="#3b814e"/><path d="M170.26,610.57a16.45,16.45,0,0,0,18,14.76l.7-.08c-1.07-4.44-2.85-8.91-6.28-11.92s-8.84-4.14-12.62-1.6" fill="#3b814e"/><path d="M170.14,606c-.69-4-4.7-7-8.76-7.35s-8.11,1.36-11.37,3.83a14.81,14.81,0,0,0,20.18,2" fill="#3b814e"/><path d="M149.14,640.4c-3.88,3.3-4.85,9.2-3.24,14s5.39,8.69,9.62,11.52c1.63-4.79,2.66-9.93,1.8-14.92s-3.87-9.81-8.5-11.84" fill="#3b814e"/><path d="M169.54,594.71a11.91,11.91,0,0,1,16.55-3.11,12.33,12.33,0,0,1,2.26,2,10.28,10.28,0,0,1-18.57.47" fill="#3b814e"/><path d="M174.29,583.06A15.48,15.48,0,0,1,155,572.73a15.22,15.22,0,0,1-.43-1.77,34.63,34.63,0,0,1,9.32.13,15.16,15.16,0,0,1,8.23,4.06,8.22,8.22,0,0,1,2.16,7.91" fill="#3b814e"/><path d="M183.25,580a12.67,12.67,0,0,1-1.78-17.83,12.93,12.93,0,0,1,1.69-1.7,26.6,26.6,0,0,1,5.54,11.81,9.83,9.83,0,0,1,0,4.88,4.5,4.5,0,0,1-3.41,3.2" fill="#3b814e"/><g opacity="0.4"><path d="M160.61,622.82a14.3,14.3,0,0,0-13.51-15,14.45,14.45,0,0,0-5.82.91,23.81,23.81,0,0,0,18.81,13.89"/></g><g opacity="0.4"><path d="M156.88,624.78c-2.76,3-2.58,7.91-.61,11.51s5.37,6.14,8.78,8.42a18.54,18.54,0,0,0-8-21"/></g><g opacity="0.4"><path d="M170.26,610.57a16.45,16.45,0,0,0,18,14.76l.7-.08c-1.07-4.44-2.85-8.91-6.28-11.92s-8.84-4.14-12.62-1.6"/></g><g opacity="0.4"><path d="M170.14,606c-.69-4-4.7-7-8.76-7.35s-8.11,1.36-11.37,3.83a14.81,14.81,0,0,0,20.18,2"/></g><g opacity="0.4"><path d="M149.14,640.4c-3.88,3.3-4.85,9.2-3.24,14s5.39,8.69,9.62,11.52c1.63-4.79,2.66-9.93,1.8-14.92s-3.87-9.81-8.5-11.84"/></g><g opacity="0.4"><path d="M169.54,594.71a11.91,11.91,0,0,1,16.55-3.11,12.33,12.33,0,0,1,2.26,2,10.28,10.28,0,0,1-18.57.47"/></g><g opacity="0.4"><path d="M174.29,583.06A15.48,15.48,0,0,1,155,572.73a15.22,15.22,0,0,1-.43-1.77,34.63,34.63,0,0,1,9.32.13,15.16,15.16,0,0,1,8.23,4.06,8.22,8.22,0,0,1,2.16,7.91"/></g><g opacity="0.4"><path d="M183.25,580a12.67,12.67,0,0,1-1.78-17.83,12.93,12.93,0,0,1,1.69-1.7,26.6,26.6,0,0,1,5.54,11.81,9.83,9.83,0,0,1,0,4.88,4.5,4.5,0,0,1-3.41,3.2"/></g><path d="M198.73,608.43a.86.86,0,0,1,0-.32,6.66,6.66,0,0,1,.05-.93c0-.82.13-2,.16-3.52a32.09,32.09,0,0,0-2.09-12.83,19.67,19.67,0,0,0-5.16-7.26,13.86,13.86,0,0,0-9.41-3.46,11.91,11.91,0,0,0-5.29,1.33,10.5,10.5,0,0,0-4.09,3.9c-2,3.39-2.56,7.62-2.35,11.76s.74,8.37.28,12.41a19.23,19.23,0,0,1-1.55,5.75,12.08,12.08,0,0,1-3.52,4.55,17.66,17.66,0,0,1-4.85,2.48,24.29,24.29,0,0,0-4.56,2.07,16.4,16.4,0,0,0-6,6.52,15.79,15.79,0,0,0-1.73,7.13,17,17,0,0,0,.91,5.52,19.76,19.76,0,0,0,2.14,4.29,1.2,1.2,0,0,1-.21-.24,8.15,8.15,0,0,1-.55-.76,15.31,15.31,0,0,1-1.61-3.21,16.71,16.71,0,0,1-1-5.6,16.08,16.08,0,0,1,1.68-7.33,17,17,0,0,1,6.1-6.76c2.8-1.86,6.48-2.35,9.32-4.55s4.34-6,4.78-9.93-.15-8.06-.3-12.32.32-8.6,2.47-12.13a11,11,0,0,1,4.34-4.11,12.29,12.29,0,0,1,5.55-1.38,14.29,14.29,0,0,1,9.73,3.63,20.2,20.2,0,0,1,5.23,7.48,26.82,26.82,0,0,1,1.77,7.32,39.93,39.93,0,0,1,.16,5.68,28.89,28.89,0,0,1-.27,3.58,5.77,5.77,0,0,1-.12.92A1.15,1.15,0,0,1,198.73,608.43Z" fill="#3b814e"/><g opacity="0.4"><path d="M198.73,608.43a.86.86,0,0,1,0-.32,6.66,6.66,0,0,1,.05-.93c0-.82.13-2,.16-3.52a32.09,32.09,0,0,0-2.09-12.83,19.67,19.67,0,0,0-5.16-7.26,13.86,13.86,0,0,0-9.41-3.46,11.91,11.91,0,0,0-5.29,1.33,10.5,10.5,0,0,0-4.09,3.9c-2,3.39-2.56,7.62-2.35,11.76s.74,8.37.28,12.41a19.23,19.23,0,0,1-1.55,5.75,12.08,12.08,0,0,1-3.52,4.55,17.66,17.66,0,0,1-4.85,2.48,24.29,24.29,0,0,0-4.56,2.07,16.4,16.4,0,0,0-6,6.52,15.79,15.79,0,0,0-1.73,7.13,17,17,0,0,0,.91,5.52,19.76,19.76,0,0,0,2.14,4.29,1.2,1.2,0,0,1-.21-.24,8.15,8.15,0,0,1-.55-.76,15.31,15.31,0,0,1-1.61-3.21,16.71,16.71,0,0,1-1-5.6,16.08,16.08,0,0,1,1.68-7.33,17,17,0,0,1,6.1-6.76c2.8-1.86,6.48-2.35,9.32-4.55s4.34-6,4.78-9.93-.15-8.06-.3-12.32.32-8.6,2.47-12.13a11,11,0,0,1,4.34-4.11,12.29,12.29,0,0,1,5.55-1.38,14.29,14.29,0,0,1,9.73,3.63,20.2,20.2,0,0,1,5.23,7.48,26.82,26.82,0,0,1,1.77,7.32,39.93,39.93,0,0,1,.16,5.68,28.89,28.89,0,0,1-.27,3.58,5.77,5.77,0,0,1-.12.92A1.15,1.15,0,0,1,198.73,608.43Z"/></g><path d="M280.92,598.34a12.13,12.13,0,0,0,.85-4.13,10.34,10.34,0,0,0-1.11-4.79,10,10,0,0,0-4.59-4.44,10.2,10.2,0,0,0-3.64-1,12.32,12.32,0,0,0-4.05.47c-2.76.73-5.5,2.36-8.78,2.95a10.28,10.28,0,0,1-5.08-.11,7.75,7.75,0,0,1-4.15-3.32c-2-3-2.52-6.9-4.91-9.71a9.55,9.55,0,0,0-4.46-2.91,12.54,12.54,0,0,0-5.2-.53,13.3,13.3,0,0,0-8.66,4.5,20.27,20.27,0,0,0-4.31,8,24.18,24.18,0,0,0-1,7.89,86.14,86.14,0,0,0,1.47,11.53l.53,3.12a3.8,3.8,0,0,0,.13.81v.29a.7.7,0,0,0-.09-.27l-.18-.8c-.16-.77-.38-1.8-.65-3.11a77.59,77.59,0,0,1-1.67-11.56,24,24,0,0,1,.91-8,20.74,20.74,0,0,1,4.37-8.23,15.53,15.53,0,0,1,4-3.17,13.67,13.67,0,0,1,10.52-1,10.22,10.22,0,0,1,4.7,3.1c2.52,3,3.06,6.88,4.95,9.78a7.06,7.06,0,0,0,3.82,3.08,9.87,9.87,0,0,0,4.8.13c3.15-.6,5.87-2.15,8.75-2.88a12,12,0,0,1,4.22-.46,10.47,10.47,0,0,1,3.79,1.06,10.17,10.17,0,0,1,5.74,9.61,9.31,9.31,0,0,1-.61,3.13A4.42,4.42,0,0,1,280.92,598.34Z" fill="#3b814e"/><path d="M247.9,577.86a11,11,0,0,0,10.08.66,10.19,10.19,0,0,0,5.12-8.1,10.85,10.85,0,0,0-15.62,6.47" fill="#3b814e"/><path d="M258.61,587.57a10.94,10.94,0,0,0,4.7,8.93,10.15,10.15,0,0,0,9.6.16,11.53,11.53,0,0,0-4.47-8.22,11.4,11.4,0,0,0-9.18-1.69" fill="#3b814e"/><path d="M277.17,585.41a11,11,0,0,0,10.09-.42,10.14,10.14,0,0,0,4.23-8.59,10.83,10.83,0,0,0-14.15,5.86,11.51,11.51,0,0,0-.65,2.24" fill="#3b814e"/><path d="M232.32,571.43c-2.7-2.35-4.53-6.43-4-9.5a10.16,10.16,0,0,1,6.23-7.3,10.84,10.84,0,0,1-1.59,16.8" fill="#3b814e"/><path d="M159.83,558.13a.74.74,0,0,1,.11-.24l.37-.7c.35-.6.87-1.47,1.64-2.55A27.48,27.48,0,0,1,170,547a20.11,20.11,0,0,1,7.26-2.65,17.71,17.71,0,0,1,8.8.93,14.33,14.33,0,0,1,7.53,6.15c1.73,3,2.28,6.57,3.29,10a18.4,18.4,0,0,0,2.11,4.7,14.47,14.47,0,0,0,3.58,3.53c1.34,1,2.75,1.89,4,2.93a17.39,17.39,0,0,1,3.28,3.52,21.87,21.87,0,0,1,3.35,8.23,28.49,28.49,0,0,1,.45,7.71,58.32,58.32,0,0,1-2,11c-.34,1.26-.63,2.25-.81,2.91a8.36,8.36,0,0,1-.33,1,6.18,6.18,0,0,1,.21-1c.16-.71.4-1.7.69-2.93A64.36,64.36,0,0,0,213.28,592a28.69,28.69,0,0,0-.52-7.57,21.24,21.24,0,0,0-3.33-8,16.87,16.87,0,0,0-3.17-3.42c-1.25-1-2.66-1.89-4-2.9a15.16,15.16,0,0,1-3.74-3.67,18.29,18.29,0,0,1-2.17-4.91c-1-3.45-1.59-6.95-3.25-9.84a13.73,13.73,0,0,0-7.2-5.94,17.46,17.46,0,0,0-8.53-.94,19.35,19.35,0,0,0-7.06,2.52,28.4,28.4,0,0,0-8.11,7.41c-.78,1-1.34,1.89-1.71,2.48C160.27,557.53,160.06,557.84,159.83,558.13Z" fill="#3b814e"/><path d="M204.23,570.57c-.93-.87-1.39-.26-2.65,0a7.83,7.83,0,0,0-3.38,1.69,14.3,14.3,0,0,0-4.63,15,11.15,11.15,0,0,0,10.18-16.76" fill="#3b814e"/><path d="M212.62,594.2A12.93,12.93,0,0,0,194.37,593a13.51,13.51,0,0,0-2,2.17,15.85,15.85,0,0,0,10.49,4.14,16.26,16.26,0,0,0,10.58-4.27" fill="#3b814e"/><path d="M209.47,576.55A13,13,0,0,0,222.63,561,11.76,11.76,0,0,0,209,576.42" fill="#3b814e"/><path d="M196,555.81a13,13,0,0,0,16.88-7.45,12.74,12.74,0,0,0,.75-2.85,11.7,11.7,0,0,0-17.95,10" fill="#3b814e"/><path d="M191.44,549a13,13,0,0,0-16.88,7.44,12.88,12.88,0,0,0-.75,2.85,11.75,11.75,0,0,0,18-10" fill="#3b814e"/><path d="M186.06,545.38a13,13,0,0,0,8.16-16.52,12.69,12.69,0,0,0-1.23-2.64,11.75,11.75,0,0,0-7.39,19.2" fill="#3b814e"/><polygon points="191.09 647.82 195.41 653.18 248.54 653.18 252.16 647.82 191.09 647.82" fill="#2f2e41"/><polygon points="191.09 647.82 195.41 653.18 248.54 653.18 252.16 647.82 191.09 647.82" opacity="0.2"/></svg>